<svg xmlns="http://www.w3.org/2000/svg" version="1.1" xmlns:xlink="http://www.w3.org/1999/xlink" xmlns:svgjs="http://svgjs.dev/svgjs" width="1500" height="1500" viewBox="0 0 1500 1500"><rect width="1500" height="1500" fill="#000000"></rect><g transform="matrix(0.6666666666666666,0,0,0.6666666666666666,249.39393939393938,660.7512500561248)"><svg viewBox="0 0 396 70" data-background-color="#ffffff" preserveAspectRatio="xMidYMid meet" height="265" width="1500" xmlns="http://www.w3.org/2000/svg" xmlns:xlink="http://www.w3.org/1999/xlink"><g id="tight-bounds" transform="matrix(1,0,0,1,0.2400000000000091,0.3627122419127886)"><svg viewBox="0 0 395.52 69.27457551617441" height="69.27457551617441" width="395.52"><g><svg viewBox="0 0 480.9695209196197 84.24089653601442" height="69.27457551617441" width="395.52"><g><rect width="3.419367458335216" height="63.81308868389297" x="73.07892974836507" y="10.213903926060723" fill="#ffffff" opacity="1" stroke-width="0" stroke="transparent" fill-opacity="1" class="rect-yte-0" data-fill-palette-color="primary" rx="1%" id="yte-0" data-palette-color="#2b6cb1"></rect></g><g transform="matrix(1,0,0,1,85.4495209196197,10.37264295263757)"><svg viewBox="0 0 395.52 63.49561063073928" height="63.49561063073928" width="395.52"><g id="textblocktransform"><svg viewBox="0 0 395.52 63.49561063073928" height="63.49561063073928" width="395.52" id="textblock"><g><svg viewBox="0 0 395.52 37.91670357393133" height="37.91670357393133" width="395.52"><g transform="matrix(1,0,0,1,0,0)"><svg width="395.52" viewBox="4.45 -33.5 356.71000000000004 34.199999999999996" height="37.91670357393133" data-palette-color="#2b6cb1"><path d="M25.75-15.55L25.75-15.55 25.75-15.55Q25.75-9.3 22.75-6.08 19.75-2.85 13.9-2.85L13.9-2.85Q12.45-2.85 11.08-2.95 9.7-3.05 8.5-3.35L8.5-3.35 8.5-27.15Q9.5-27.35 10.7-27.45 11.9-27.55 13.45-27.55L13.45-27.55Q16.85-27.55 19.63-26.33 22.4-25.1 24.08-22.48 25.75-19.85 25.75-15.55ZM29.9-15.55L29.9-15.55 29.9-15.55Q29.9-20.7 27.83-24.1 25.75-27.5 22.08-29.23 18.4-30.95 13.5-30.95L13.5-30.95Q11.55-30.95 9.6-30.8 7.65-30.65 6.1-30.15L6.1-30.15Q5.3-29.9 4.88-29.48 4.45-29.05 4.45-28.25L4.45-28.25 4.45-2.55Q4.45-0.9 6.55-0.25L6.55-0.25Q8.35 0.3 10.38 0.43 12.4 0.55 13.95 0.55L13.95 0.55Q18.8 0.55 22.38-1.2 25.95-2.95 27.93-6.53 29.9-10.1 29.9-15.55ZM54.6-11.35L37.8-9 37.6-12.15 52.7-14.2Q52.5-16.95 50.8-18.73 49.1-20.5 46.1-20.5L46.1-20.5Q43-20.5 40.97-18.28 38.95-16.05 38.95-11.9L38.95-11.9 38.95-10.8Q39.3-6.8 41.57-4.73 43.85-2.65 47.8-2.65L47.8-2.65Q49.9-2.65 51.6-3.35 53.3-4.05 54.3-4.85L54.3-4.85Q54.85-4.5 55.17-4.03 55.5-3.55 55.5-2.95L55.5-2.95Q55.5-2 54.42-1.18 53.35-0.35 51.57 0.15 49.8 0.65 47.6 0.65L47.6 0.65Q43.75 0.65 40.92-0.75 38.1-2.15 36.57-4.93 35.05-7.7 35.05-11.7L35.05-11.7Q35.05-14.55 35.87-16.78 36.7-19 38.17-20.55 39.65-22.1 41.7-22.93 43.75-23.75 46.15-23.75L46.15-23.75Q49.2-23.75 51.52-22.45 53.85-21.15 55.17-18.82 56.5-16.5 56.5-13.5L56.5-13.5Q56.5-12.4 56-11.93 55.5-11.45 54.6-11.35L54.6-11.35ZM78.5-19.2L63.2 0 61.6 0Q61.25-0.3 61.02-0.78 60.8-1.25 60.8-1.75L60.8-1.75Q60.8-2.35 61.07-2.88 61.35-3.4 61.7-3.9L61.7-3.9 77.05-23.1 78.6-23.1Q79-22.75 79.22-22.3 79.45-21.85 79.45-21.3L79.45-21.3Q79.45-20.75 79.2-20.25 78.95-19.75 78.5-19.2L78.5-19.2ZM62.6-23.1L78.05-23.1 78.05-19.8 61.55-19.8Q61.4-20.05 61.25-20.5 61.1-20.95 61.1-21.45L61.1-21.45Q61.1-22.3 61.5-22.7 61.9-23.1 62.6-23.1L62.6-23.1ZM78.25 0L61.9 0 61.9-3.25 79.35-3.25Q79.5-3.05 79.65-2.63 79.8-2.2 79.8-1.65L79.8-1.65Q79.8-0.85 79.4-0.43 79 0 78.25 0L78.25 0ZM93.99-2.6L93.99-2.6 93.99-2.6Q96.09-2.6 97.47-3.03 98.84-3.45 99.44-3.85L99.44-3.85 99.44-11.1 93.24-10.45Q90.64-10.25 89.39-9.3 88.14-8.35 88.14-6.55L88.14-6.55Q88.14-4.7 89.62-3.65 91.09-2.6 93.99-2.6ZM93.94-23.75L93.94-23.75 93.94-23.75Q98.29-23.75 100.84-21.8 103.39-19.85 103.39-15.65L103.39-15.65 103.39-3.8Q103.39-2.7 102.97-2.13 102.54-1.55 101.69-1.05L101.69-1.05Q100.49-0.4 98.49 0.15 96.49 0.7 93.99 0.7L93.99 0.7Q89.29 0.7 86.72-1.15 84.14-3 84.14-6.5L84.14-6.5Q84.14-9.75 86.32-11.48 88.49-13.2 92.34-13.55L92.34-13.55 99.44-14.25 99.44-15.65Q99.44-18.15 97.94-19.3 96.44-20.45 93.89-20.45L93.89-20.45Q91.84-20.45 89.97-19.85 88.09-19.25 86.64-18.5L86.64-18.5Q86.24-18.85 85.92-19.33 85.59-19.8 85.59-20.3L85.59-20.3Q85.59-21.6 87.04-22.3L87.04-22.3Q88.39-23 90.17-23.38 91.94-23.75 93.94-23.75ZM114.69-18.8L114.69-18.8 114.69-10.9 110.69-10.9 110.69-18.5Q110.69-19.65 111.12-20.33 111.54-21 112.54-21.65L112.54-21.65Q113.84-22.5 116.09-23.13 118.34-23.75 121.09-23.75L121.09-23.75Q125.09-23.75 125.09-21.75L125.09-21.75Q125.09-21.25 124.94-20.83 124.79-20.4 124.54-20.1L124.54-20.1Q124.04-20.2 123.24-20.3 122.44-20.4 121.64-20.4L121.64-20.4Q119.34-20.4 117.59-19.93 115.84-19.45 114.69-18.8ZM110.69-1.55L110.69-13.2 114.69-12.6 114.69-0.1Q114.44 0 113.94 0.13 113.44 0.25 112.84 0.25L112.84 0.25Q111.79 0.25 111.24-0.18 110.69-0.6 110.69-1.55L110.69-1.55ZM129.44-30.4L129.44-30.4 129.44-30.4Q129.44-31.45 130.19-32.18 130.94-32.9 132.04-32.9L132.04-32.9Q133.19-32.9 133.89-32.18 134.59-31.45 134.59-30.4L134.59-30.4Q134.59-29.35 133.89-28.63 133.19-27.9 132.04-27.9L132.04-27.9Q130.94-27.9 130.19-28.63 129.44-29.35 129.44-30.4ZM130.04-1.55L130.04-13.2 134.04-13.2 134.04-0.1Q133.79 0 133.29 0.13 132.79 0.25 132.19 0.25L132.19 0.25Q131.14 0.25 130.59-0.18 130.04-0.6 130.04-1.55L130.04-1.55ZM134.04-21.5L134.04-11.25 130.04-11.25 130.04-23Q130.29-23.1 130.81-23.23 131.34-23.35 131.94-23.35L131.94-23.35Q132.99-23.35 133.51-22.93 134.04-22.5 134.04-21.5L134.04-21.5ZM163.29-11.55L163.29-11.55 163.29-11.55Q163.29-7.85 161.89-5.1 160.49-2.35 157.94-0.85 155.39 0.65 151.94 0.65L151.94 0.65Q148.49 0.65 145.91-0.85 143.34-2.35 141.94-5.1 140.54-7.85 140.54-11.55L140.54-11.55Q140.54-15.3 141.96-18.03 143.39-20.75 145.96-22.25 148.54-23.75 151.94-23.75L151.94-23.75Q155.34-23.75 157.89-22.25 160.44-20.75 161.86-18.03 163.29-15.3 163.29-11.55ZM151.94-20.45L151.94-20.45 151.94-20.45Q148.59-20.45 146.61-18.07 144.64-15.7 144.64-11.55L144.64-11.55Q144.64-7.35 146.56-5 148.49-2.65 151.94-2.65L151.94-2.65Q155.34-2.65 157.26-5.03 159.19-7.4 159.19-11.55L159.19-11.55Q159.19-15.7 157.26-18.07 155.34-20.45 151.94-20.45ZM185.23-1.6L185.23-18.15 189.28-18.15 189.28-0.1Q189.03 0 188.53 0.13 188.03 0.25 187.43 0.25L187.43 0.25Q186.33 0.25 185.78-0.2 185.23-0.65 185.23-1.6L185.23-1.6ZM189.28-28.8L189.28-14.8 185.23-14.8 185.23-30.3Q185.48-30.4 186.01-30.53 186.53-30.65 187.13-30.65L187.13-30.65Q188.23-30.65 188.76-30.23 189.28-29.8 189.28-28.8L189.28-28.8ZM217.58-15.25L217.58-15.25 217.58-10.15 213.58-10.15 213.58-15.05Q213.58-17.85 212-19.15 210.43-20.45 207.78-20.45L207.78-20.45Q205.78-20.45 204.23-19.95 202.68-19.45 201.58-18.8L201.58-18.8 201.58-10.15 197.58-10.15 197.58-18.6Q197.58-19.65 198-20.33 198.43-21 199.48-21.65L199.48-21.65Q200.78-22.4 202.93-23.08 205.08-23.75 207.78-23.75L207.78-23.75Q212.33-23.75 214.95-21.68 217.58-19.6 217.58-15.25ZM197.58-1.55L197.58-12.9 201.58-12.9 201.58-0.1Q201.33 0 200.83 0.13 200.33 0.25 199.73 0.25L199.73 0.25Q198.68 0.25 198.13-0.18 197.58-0.6 197.58-1.55L197.58-1.55ZM213.58-1.55L213.58-12.9 217.58-12.9 217.58-0.1Q217.33 0 216.8 0.13 216.28 0.25 215.73 0.25L215.73 0.25Q214.63 0.25 214.1-0.18 213.58-0.6 213.58-1.55L213.58-1.55ZM237.93-18.55L228.43-18.55 228.43-21.8 239.03-21.8Q239.18-21.6 239.33-21.18 239.48-20.75 239.48-20.2L239.48-20.2Q239.48-19.4 239.08-18.98 238.68-18.55 237.93-18.55L237.93-18.55ZM229.13-24.95L229.13-24.95 229.13-19.1 225.18-19.1 225.18-25.15Q225.18-28.1 226.25-29.93 227.33-31.75 229.35-32.63 231.38-33.5 234.18-33.5L234.18-33.5Q237.03-33.5 238.65-32.75 240.28-32 240.28-30.9L240.28-30.9Q240.28-30.35 240.05-29.9 239.83-29.45 239.43-29.05L239.43-29.05Q238.53-29.55 237.18-29.88 235.83-30.2 234.58-30.2L234.58-30.2Q231.53-30.2 230.33-28.95 229.13-27.7 229.13-24.95ZM225.18-1.55L225.18-21.3 229.18-21.3 229.18-0.1Q228.93 0 228.43 0.13 227.93 0.25 227.33 0.25L227.33 0.25Q226.28 0.25 225.73-0.18 225.18-0.6 225.18-1.55L225.18-1.55ZM266.47-11.55L266.47-11.55 266.47-11.55Q266.47-7.85 265.07-5.1 263.67-2.35 261.12-0.85 258.57 0.65 255.12 0.65L255.12 0.65Q251.67 0.65 249.1-0.85 246.52-2.35 245.12-5.1 243.72-7.85 243.72-11.55L243.72-11.55Q243.72-15.3 245.15-18.03 246.57-20.75 249.15-22.25 251.72-23.75 255.12-23.75L255.12-23.75Q258.52-23.75 261.07-22.25 263.62-20.75 265.05-18.03 266.47-15.3 266.47-11.55ZM255.12-20.45L255.12-20.45 255.12-20.45Q251.77-20.45 249.8-18.07 247.82-15.7 247.82-11.55L247.82-11.55Q247.82-7.35 249.75-5 251.67-2.65 255.12-2.65L255.12-2.65Q258.52-2.65 260.45-5.03 262.37-7.4 262.37-11.55L262.37-11.55Q262.37-15.7 260.45-18.07 258.52-20.45 255.12-20.45ZM272.72-6.05L272.72-13.2 276.72-13.2 276.72-6.3Q276.72-4.3 277.87-3.48 279.02-2.65 281.02-2.65L281.02-2.65Q281.87-2.65 282.92-2.95 283.97-3.25 284.67-3.65L284.67-3.65Q284.97-3.35 285.22-2.9 285.47-2.45 285.47-1.85L285.47-1.85Q285.47-0.75 284.17-0.05 282.87 0.65 280.57 0.65L280.57 0.65Q277.07 0.65 274.9-0.9 272.72-2.45 272.72-6.05L272.72-6.05ZM283.87-19.3L274.77-19.3 274.77-22.6 284.92-22.6Q285.07-22.4 285.22-21.95 285.37-21.5 285.37-21L285.37-21Q285.37-20.2 284.97-19.75 284.57-19.3 283.87-19.3L283.87-19.3ZM276.72-28.35L276.72-11.7 272.72-11.7 272.72-29.8Q272.97-29.9 273.5-30.03 274.02-30.15 274.62-30.15L274.62-30.15Q275.67-30.15 276.19-29.73 276.72-29.3 276.72-28.35L276.72-28.35ZM309.52-11.35L292.72-9 292.52-12.15 307.62-14.2Q307.42-16.95 305.72-18.73 304.02-20.5 301.02-20.5L301.02-20.5Q297.92-20.5 295.89-18.28 293.87-16.05 293.87-11.9L293.87-11.9 293.87-10.8Q294.22-6.8 296.49-4.73 298.77-2.65 302.72-2.65L302.72-2.65Q304.82-2.65 306.52-3.35 308.22-4.05 309.22-4.85L309.22-4.85Q309.77-4.5 310.09-4.03 310.42-3.55 310.42-2.95L310.42-2.95Q310.42-2 309.34-1.18 308.27-0.35 306.49 0.15 304.72 0.65 302.52 0.65L302.52 0.65Q298.67 0.65 295.84-0.75 293.02-2.15 291.49-4.93 289.97-7.7 289.97-11.7L289.97-11.7Q289.97-14.55 290.79-16.78 291.62-19 293.09-20.55 294.57-22.1 296.62-22.93 298.67-23.75 301.07-23.75L301.07-23.75Q304.12-23.75 306.44-22.45 308.77-21.15 310.09-18.82 311.42-16.5 311.42-13.5L311.42-13.5Q311.42-12.4 310.92-11.93 310.42-11.45 309.52-11.35L309.52-11.35ZM327.92-20.4L327.92-20.4 327.92-20.4Q324.52-20.4 322.27-18.1 320.02-15.8 320.02-11.5L320.02-11.5Q320.02-7.25 322.19-4.95 324.37-2.65 327.92-2.65L327.92-2.65Q330.02-2.65 331.42-3.23 332.82-3.8 333.92-4.55L333.92-4.55Q334.47-4.25 334.82-3.8 335.17-3.35 335.17-2.7L335.17-2.7Q335.17-1.3 333.09-0.33 331.02 0.65 327.92 0.65L327.92 0.65Q324.47 0.65 321.74-0.68 319.02-2 317.47-4.7 315.92-7.4 315.92-11.5L315.92-11.5Q315.92-15.55 317.52-18.28 319.12-21 321.84-22.38 324.57-23.75 327.82-23.75L327.82-23.75Q330.92-23.75 332.94-22.7 334.97-21.65 334.97-20.3L334.97-20.3Q334.97-19.7 334.62-19.25 334.27-18.8 333.72-18.55L333.72-18.55Q332.62-19.3 331.29-19.85 329.97-20.4 327.92-20.4ZM361.16-14.65L361.16-9.95 357.16-9.95 357.16-14.55Q357.16-17.55 355.49-19 353.81-20.45 351.16-20.45L351.16-20.45Q349.21-20.45 347.54-19.7 345.86-18.95 344.71-17.9L344.71-17.9 343.96-21.15Q345.16-22 347.14-22.88 349.11-23.75 351.71-23.75L351.71-23.75Q355.86-23.75 358.51-21.5 361.16-19.25 361.16-14.65L361.16-14.65ZM341.21-1.55L341.21-13.2 345.21-13.2 345.21-0.1Q344.96 0 344.46 0.13 343.96 0.25 343.36 0.25L343.36 0.25Q342.31 0.25 341.76-0.18 341.21-0.6 341.21-1.55L341.21-1.55ZM357.16-1.55L357.16-13.15 361.16-13.1 361.16-0.1Q360.91 0 360.39 0.13 359.86 0.25 359.31 0.25L359.31 0.25Q358.21 0.25 357.69-0.18 357.16-0.6 357.16-1.55L357.16-1.55ZM345.21-30.95L345.21-11.25 341.21-11.25 341.21-32.4Q341.46-32.5 341.99-32.63 342.51-32.75 343.11-32.75L343.11-32.75Q344.16-32.75 344.69-32.33 345.21-31.9 345.21-30.95L345.21-30.95Z" opacity="1" transform="matrix(1,0,0,1,0,0)" fill="#ffffff" class="wordmark-text-0" data-fill-palette-color="primary" id="text-0"></path></svg></g></svg></g><g transform="matrix(1,0,0,1,0,46.867927286850744)"><svg viewBox="0 0 244.2336 16.62768334388854" height="16.62768334388854" width="244.2336"><g transform="matrix(1,0,0,1,0,0)"><svg width="244.2336" viewBox="4.4 -32.9 631.53 43" height="16.62768334388854" data-palette-color="#0085ad"><path d="M16.2 0.65L16.2 0.65 16.2 0.65Q12.45 0.65 9.8-0.73 7.15-2.1 5.78-4.63 4.4-7.15 4.4-10.5L4.4-10.5 4.4-14.6 8.45-14.6 8.45-10.85Q8.45-6.85 10.68-4.83 12.9-2.8 16.2-2.8L16.2-2.8Q19.5-2.8 21.73-4.83 23.95-6.85 23.95-10.85L23.95-10.85 23.95-14.6 28.05-14.6 28.05-10.5Q28.05-7.15 26.68-4.63 25.3-2.1 22.65-0.73 20 0.65 16.2 0.65ZM8.45-28.8L8.45-12.55 4.4-12.55 4.4-30.3Q4.65-30.4 5.18-30.53 5.7-30.65 6.3-30.65L6.3-30.65Q7.4-30.65 7.93-30.23 8.45-29.8 8.45-28.8L8.45-28.8ZM28.05-28.8L28.05-12.55 23.95-12.55 23.95-30.3Q24.2-30.4 24.73-30.53 25.25-30.65 25.85-30.65L25.85-30.65Q26.95-30.65 27.5-30.23 28.05-29.8 28.05-28.8L28.05-28.8ZM56.2-15.25L56.2-15.25 56.2-10.15 52.2-10.15 52.2-15.05Q52.2-17.85 50.62-19.15 49.05-20.45 46.4-20.45L46.4-20.45Q44.4-20.45 42.85-19.95 41.3-19.45 40.2-18.8L40.2-18.8 40.2-10.15 36.2-10.15 36.2-18.6Q36.2-19.65 36.62-20.33 37.05-21 38.1-21.65L38.1-21.65Q39.4-22.4 41.55-23.08 43.7-23.75 46.4-23.75L46.4-23.75Q50.95-23.75 53.57-21.68 56.2-19.6 56.2-15.25ZM36.2-1.55L36.2-12.9 40.2-12.9 40.2-0.1Q39.95 0 39.45 0.13 38.95 0.25 38.35 0.25L38.35 0.25Q37.3 0.25 36.75-0.18 36.2-0.6 36.2-1.55L36.2-1.55ZM52.2-1.55L52.2-12.9 56.2-12.9 56.2-0.1Q55.95 0 55.42 0.13 54.9 0.25 54.35 0.25L54.35 0.25Q53.25 0.25 52.72-0.18 52.2-0.6 52.2-1.55L52.2-1.55ZM64.1-1.55L64.1-13.2 68.1-12.6 68.1-0.1Q67.85 0 67.35 0.13 66.85 0.25 66.25 0.25L66.25 0.25Q65.2 0.25 64.65-0.18 64.1-0.6 64.1-1.55L64.1-1.55ZM68.1-30.95L68.1-10.7 64.1-11.25 64.1-32.4Q64.35-32.5 64.87-32.63 65.4-32.75 65.95-32.75L65.95-32.75Q67.05-32.75 67.57-32.33 68.1-31.9 68.1-30.95L68.1-30.95ZM94.24-11.35L77.44-9 77.24-12.15 92.34-14.2Q92.14-16.95 90.44-18.73 88.74-20.5 85.74-20.5L85.74-20.5Q82.64-20.5 80.62-18.28 78.59-16.05 78.59-11.9L78.59-11.9 78.59-10.8Q78.94-6.8 81.22-4.73 83.49-2.65 87.44-2.65L87.44-2.65Q89.54-2.65 91.24-3.35 92.94-4.05 93.94-4.85L93.94-4.85Q94.49-4.5 94.82-4.03 95.14-3.55 95.14-2.95L95.14-2.95Q95.14-2 94.07-1.18 92.99-0.35 91.22 0.15 89.44 0.65 87.24 0.65L87.24 0.65Q83.39 0.65 80.57-0.75 77.74-2.15 76.22-4.93 74.69-7.7 74.69-11.7L74.69-11.7Q74.69-14.55 75.52-16.78 76.34-19 77.82-20.55 79.29-22.1 81.34-22.93 83.39-23.75 85.79-23.75L85.79-23.75Q88.84-23.75 91.17-22.45 93.49-21.15 94.82-18.82 96.14-16.5 96.14-13.5L96.14-13.5Q96.14-12.4 95.64-11.93 95.14-11.45 94.24-11.35L94.24-11.35ZM110.19-2.6L110.19-2.6 110.19-2.6Q112.29-2.6 113.67-3.03 115.04-3.45 115.64-3.85L115.64-3.85 115.64-11.1 109.44-10.45Q106.84-10.25 105.59-9.3 104.34-8.35 104.34-6.55L104.34-6.55Q104.34-4.7 105.82-3.65 107.29-2.6 110.19-2.6ZM110.14-23.75L110.14-23.75 110.14-23.75Q114.49-23.75 117.04-21.8 119.59-19.85 119.59-15.65L119.59-15.65 119.59-3.8Q119.59-2.7 119.17-2.13 118.74-1.55 117.89-1.05L117.89-1.05Q116.69-0.4 114.69 0.15 112.69 0.7 110.19 0.7L110.19 0.7Q105.49 0.7 102.92-1.15 100.34-3 100.34-6.5L100.34-6.5Q100.34-9.75 102.52-11.48 104.69-13.2 108.54-13.55L108.54-13.55 115.64-14.25 115.64-15.65Q115.64-18.15 114.14-19.3 112.64-20.45 110.09-20.45L110.09-20.45Q108.04-20.45 106.17-19.85 104.29-19.25 102.84-18.5L102.84-18.5Q102.44-18.85 102.12-19.33 101.79-19.8 101.79-20.3L101.79-20.3Q101.79-21.6 103.24-22.3L103.24-22.3Q104.59-23 106.37-23.38 108.14-23.75 110.14-23.75ZM143.19-6.15L143.19-6.15 143.19-6.15Q143.19-2.95 140.84-1.15 138.49 0.65 134.04 0.65L134.04 0.65Q130.24 0.65 127.84-0.53 125.44-1.7 125.44-3.1L125.44-3.1Q125.44-3.7 125.76-4.28 126.09-4.85 126.74-5.2L126.74-5.2Q128.09-4.25 129.89-3.45 131.69-2.65 133.99-2.65L133.99-2.65Q139.19-2.65 139.19-6.15L139.19-6.15Q139.19-7.6 138.31-8.53 137.44-9.45 135.74-9.85L135.74-9.85 131.59-10.95Q128.54-11.7 127.14-13.28 125.74-14.85 125.74-17.2L125.74-17.2Q125.74-19.85 127.89-21.8 130.04-23.75 134.44-23.75L134.44-23.75Q136.79-23.75 138.54-23.28 140.29-22.8 141.26-22.03 142.24-21.25 142.24-20.35L142.24-20.35Q142.24-19.7 141.91-19.2 141.59-18.7 141.04-18.45L141.04-18.45Q140.44-18.85 139.51-19.33 138.59-19.8 137.34-20.13 136.09-20.45 134.59-20.45L134.59-20.45Q132.39-20.45 131.04-19.6 129.69-18.75 129.69-17.2L129.69-17.2Q129.69-16.1 130.46-15.28 131.24-14.45 132.94-14.05L132.94-14.05 136.39-13.2Q139.79-12.4 141.49-10.68 143.19-8.95 143.19-6.15ZM169.29-14.65L169.29-9.95 165.29-9.95 165.29-14.55Q165.29-17.55 163.61-19 161.94-20.45 159.29-20.45L159.29-20.45Q157.34-20.45 155.66-19.7 153.99-18.95 152.84-17.9L152.84-17.9 152.09-21.15Q153.29-22 155.26-22.88 157.24-23.75 159.84-23.75L159.84-23.75Q163.99-23.75 166.64-21.5 169.29-19.25 169.29-14.65L169.29-14.65ZM149.34-1.55L149.34-13.2 153.34-13.2 153.34-0.1Q153.09 0 152.59 0.13 152.09 0.25 151.49 0.25L151.49 0.25Q150.44 0.25 149.89-0.18 149.34-0.6 149.34-1.55L149.34-1.55ZM165.29-1.55L165.29-13.15 169.29-13.1 169.29-0.1Q169.04 0 168.51 0.13 167.99 0.25 167.44 0.25L167.44 0.25Q166.34 0.25 165.81-0.18 165.29-0.6 165.29-1.55L165.29-1.55ZM153.34-30.95L153.34-11.25 149.34-11.25 149.34-32.4Q149.59-32.5 150.11-32.63 150.64-32.75 151.24-32.75L151.24-32.75Q152.29-32.75 152.81-32.33 153.34-31.9 153.34-30.95L153.34-30.95ZM198.73-10.9L198.73-10.9 195.18-10.9Q193.78-13 192.26-15.33 190.73-17.65 189.26-20.05 187.78-22.45 186.46-24.78 185.13-27.1 184.08-29.1L184.08-29.1Q184.28-29.65 184.83-30.18 185.38-30.7 186.28-30.7L186.28-30.7Q187.23-30.7 187.76-30.2 188.28-29.7 188.83-28.7L188.83-28.7Q189.48-27.55 190.31-26.13 191.13-24.7 192.03-23.13 192.93-21.55 193.83-20 194.73-18.45 195.51-17.1 196.28-15.75 196.88-14.75L196.88-14.75 197.08-14.75Q198.83-17.65 200.28-20.25 201.73-22.85 203.08-25.35 204.43-27.85 205.73-30.35L205.73-30.35Q206.03-30.55 206.48-30.63 206.93-30.7 207.28-30.7L207.28-30.7Q208.23-30.7 208.71-30.25 209.18-29.8 209.18-29L209.18-29Q209.18-28.5 208.41-26.88 207.63-25.25 206.23-22.83 204.83-20.4 202.93-17.35 201.03-14.3 198.73-10.9ZM194.93-1.6L194.93-12.85 198.98-12.85 198.98-0.1Q198.73 0 198.21 0.13 197.68 0.25 197.13 0.25L197.13 0.25Q196.03 0.25 195.48-0.2 194.93-0.65 194.93-1.6L194.93-1.6ZM235.73-11.55L235.73-11.55 235.73-11.55Q235.73-7.85 234.33-5.1 232.93-2.35 230.38-0.85 227.83 0.65 224.38 0.65L224.38 0.65Q220.93 0.65 218.35-0.85 215.78-2.35 214.38-5.1 212.98-7.85 212.98-11.55L212.98-11.55Q212.98-15.3 214.4-18.03 215.83-20.75 218.4-22.25 220.98-23.75 224.38-23.75L224.38-23.75Q227.78-23.75 230.33-22.25 232.88-20.75 234.3-18.03 235.73-15.3 235.73-11.55ZM224.38-20.45L224.38-20.45 224.38-20.45Q221.03-20.45 219.05-18.07 217.08-15.7 217.08-11.55L217.08-11.55Q217.08-7.35 219-5 220.93-2.65 224.38-2.65L224.38-2.65Q227.78-2.65 229.7-5.03 231.63-7.4 231.63-11.55L231.63-11.55Q231.63-15.7 229.7-18.07 227.78-20.45 224.38-20.45ZM241.93-8.45L241.93-8.45 241.93-13 245.93-13 245.93-8.65Q245.93-5.45 247.63-4.05 249.33-2.65 252.33-2.65L252.33-2.65Q254.33-2.65 255.73-3.08 257.13-3.5 257.93-3.95L257.93-3.95 257.93-13 261.93-13 261.93-4.1Q261.93-3.05 261.65-2.43 261.38-1.8 260.33-1.2L260.33-1.2Q259.23-0.55 257.18 0.05 255.13 0.65 252.28 0.65L252.28 0.65Q248.98 0.65 246.65-0.33 244.33-1.3 243.13-3.33 241.93-5.35 241.93-8.45ZM261.93-21.5L261.93-10.4 257.93-10.4 257.93-23Q258.18-23.1 258.7-23.23 259.23-23.35 259.78-23.35L259.78-23.35Q260.88-23.35 261.4-22.93 261.93-22.5 261.93-21.5L261.93-21.5ZM245.93-21.5L245.93-10.4 241.93-10.4 241.93-23Q242.18-23.1 242.7-23.23 243.23-23.35 243.83-23.35L243.83-23.35Q244.88-23.35 245.4-22.93 245.93-22.5 245.93-21.5L245.93-21.5ZM273.42-18.8L273.42-18.8 273.42-10.9 269.42-10.9 269.42-18.5Q269.42-19.65 269.85-20.33 270.27-21 271.27-21.65L271.27-21.65Q272.57-22.5 274.82-23.13 277.07-23.75 279.82-23.75L279.82-23.75Q283.82-23.75 283.82-21.75L283.82-21.75Q283.82-21.25 283.67-20.83 283.52-20.4 283.27-20.1L283.27-20.1Q282.77-20.2 281.97-20.3 281.17-20.4 280.37-20.4L280.37-20.4Q278.07-20.4 276.32-19.93 274.57-19.45 273.42-18.8ZM269.42-1.55L269.42-13.2 273.42-12.6 273.42-0.1Q273.17 0 272.67 0.13 272.17 0.25 271.57 0.25L271.57 0.25Q270.52 0.25 269.97-0.18 269.42-0.6 269.42-1.55L269.42-1.55ZM320.52-15.55L320.52-15.55 320.52-15.55Q320.52-9.3 317.52-6.08 314.52-2.85 308.67-2.85L308.67-2.85Q307.22-2.85 305.84-2.95 304.47-3.05 303.27-3.35L303.27-3.35 303.27-27.15Q304.27-27.35 305.47-27.45 306.67-27.55 308.22-27.55L308.22-27.55Q311.62-27.55 314.39-26.33 317.17-25.1 318.84-22.48 320.52-19.85 320.52-15.55ZM324.67-15.55L324.67-15.55 324.67-15.55Q324.67-20.7 322.59-24.1 320.52-27.5 316.84-29.23 313.17-30.95 308.27-30.95L308.27-30.95Q306.32-30.95 304.37-30.8 302.42-30.65 300.87-30.15L300.87-30.15Q300.07-29.9 299.64-29.48 299.22-29.05 299.22-28.25L299.22-28.25 299.22-2.55Q299.22-0.9 301.32-0.25L301.32-0.25Q303.12 0.3 305.14 0.43 307.17 0.55 308.72 0.55L308.72 0.55Q313.57 0.55 317.14-1.2 320.72-2.95 322.69-6.53 324.67-10.1 324.67-15.55ZM330.77-30.4L330.77-30.4 330.77-30.4Q330.77-31.45 331.52-32.18 332.27-32.9 333.37-32.9L333.37-32.9Q334.52-32.9 335.22-32.18 335.92-31.45 335.92-30.4L335.92-30.4Q335.92-29.35 335.22-28.63 334.52-27.9 333.37-27.9L333.37-27.9Q332.27-27.9 331.52-28.63 330.77-29.35 330.77-30.4ZM331.37-1.55L331.37-13.2 335.37-13.2 335.37-0.1Q335.12 0 334.62 0.13 334.12 0.25 333.52 0.25L333.52 0.25Q332.47 0.25 331.92-0.18 331.37-0.6 331.37-1.55L331.37-1.55ZM335.37-21.5L335.37-11.25 331.37-11.25 331.37-23Q331.62-23.1 332.14-23.23 332.67-23.35 333.27-23.35L333.27-23.35Q334.32-23.35 334.84-22.93 335.37-22.5 335.37-21.5L335.37-21.5ZM352.76-0.7L352.76-0.7 352.76-0.7Q349.86-0.7 347.41-1.83 344.96-2.95 343.46-5.5 341.96-8.05 341.96-12.25L341.96-12.25Q341.96-16.05 343.44-18.6 344.91-21.15 347.51-22.45 350.11-23.75 353.46-23.75L353.46-23.75Q355.76-23.75 357.69-23.18 359.61-22.6 360.91-21.75L360.91-21.75Q361.66-21.25 362.14-20.63 362.61-20 362.61-19.1L362.61-19.1 362.61-3.65 358.61-3.65 358.61-19.05Q357.76-19.6 356.49-20.03 355.21-20.45 353.46-20.45L353.46-20.45Q350.11-20.45 348.06-18.4 346.01-16.35 346.01-12.3L346.01-12.3Q346.01-7.8 348.09-5.9 350.16-4 353.21-4L353.21-4Q355.41-4 356.76-4.75 358.11-5.5 358.91-6.4L358.91-6.4 359.11-2.85Q358.36-2.05 356.74-1.38 355.11-0.7 352.76-0.7ZM358.61 0.75L358.61 0.75 358.61-4.5 362.61-4.5 362.61 1Q362.61 4.3 361.19 6.3 359.76 8.3 357.29 9.2 354.81 10.1 351.71 10.1L351.71 10.1Q349.21 10.1 347.41 9.55 345.61 9 344.96 8.65L344.96 8.65Q343.46 7.8 343.46 6.5L343.46 6.5Q343.46 5.8 343.79 5.33 344.11 4.85 344.61 4.6L344.61 4.6Q345.66 5.4 347.59 6.08 349.51 6.75 351.71 6.75L351.71 6.75Q355.06 6.75 356.84 5.3 358.61 3.85 358.61 0.75ZM369.66-30.4L369.66-30.4 369.66-30.4Q369.66-31.45 370.41-32.18 371.16-32.9 372.26-32.9L372.26-32.9Q373.41-32.9 374.11-32.18 374.81-31.45 374.81-30.4L374.81-30.4Q374.81-29.35 374.11-28.63 373.41-27.9 372.26-27.9L372.26-27.9Q371.16-27.9 370.41-28.63 369.66-29.35 369.66-30.4ZM370.26-1.55L370.26-13.2 374.26-13.2 374.26-0.1Q374.01 0 373.51 0.13 373.01 0.25 372.41 0.25L372.41 0.25Q371.36 0.25 370.81-0.18 370.26-0.6 370.26-1.55L370.26-1.55ZM374.26-21.5L374.26-11.25 370.26-11.25 370.26-23Q370.51-23.1 371.04-23.23 371.56-23.35 372.16-23.35L372.16-23.35Q373.21-23.35 373.74-22.93 374.26-22.5 374.26-21.5L374.26-21.5ZM382.11-6.05L382.11-13.2 386.11-13.2 386.11-6.3Q386.11-4.3 387.26-3.48 388.41-2.65 390.41-2.65L390.41-2.65Q391.26-2.65 392.31-2.95 393.36-3.25 394.06-3.65L394.06-3.65Q394.36-3.35 394.61-2.9 394.86-2.45 394.86-1.85L394.86-1.85Q394.86-0.75 393.56-0.05 392.26 0.65 389.96 0.65L389.96 0.65Q386.46 0.65 384.28-0.9 382.11-2.45 382.11-6.05L382.11-6.05ZM393.26-19.3L384.16-19.3 384.16-22.6 394.31-22.6Q394.46-22.4 394.61-21.95 394.76-21.5 394.76-21L394.76-21Q394.76-20.2 394.36-19.75 393.96-19.3 393.26-19.3L393.26-19.3ZM386.11-28.35L386.11-11.7 382.11-11.7 382.11-29.8Q382.36-29.9 382.88-30.03 383.41-30.15 384.01-30.15L384.01-30.15Q385.06-30.15 385.58-29.73 386.11-29.3 386.11-28.35L386.11-28.35ZM408.91-2.6L408.91-2.6 408.91-2.6Q411.01-2.6 412.38-3.03 413.76-3.45 414.36-3.85L414.36-3.85 414.36-11.1 408.16-10.45Q405.56-10.25 404.31-9.3 403.06-8.35 403.06-6.55L403.06-6.55Q403.06-4.7 404.53-3.65 406.01-2.6 408.91-2.6ZM408.86-23.75L408.86-23.75 408.86-23.75Q413.21-23.75 415.76-21.8 418.31-19.85 418.31-15.65L418.31-15.65 418.31-3.8Q418.31-2.7 417.88-2.13 417.46-1.55 416.61-1.05L416.61-1.05Q415.41-0.4 413.41 0.15 411.41 0.7 408.91 0.7L408.91 0.7Q404.21 0.7 401.63-1.15 399.06-3 399.06-6.5L399.06-6.5Q399.06-9.75 401.23-11.48 403.41-13.2 407.26-13.55L407.26-13.55 414.36-14.25 414.36-15.65Q414.36-18.15 412.86-19.3 411.36-20.45 408.81-20.45L408.81-20.45Q406.76-20.45 404.88-19.85 403.01-19.25 401.56-18.5L401.56-18.5Q401.16-18.85 400.83-19.33 400.51-19.8 400.51-20.3L400.51-20.3Q400.51-21.6 401.96-22.3L401.96-22.3Q403.31-23 405.08-23.38 406.86-23.75 408.86-23.75ZM426-1.55L426-13.2 430-12.6 430-0.1Q429.75 0 429.25 0.13 428.75 0.25 428.15 0.25L428.15 0.25Q427.1 0.25 426.55-0.18 426-0.6 426-1.55L426-1.55ZM430-30.95L430-10.7 426-11.25 426-32.4Q426.25-32.5 426.78-32.63 427.3-32.75 427.85-32.75L427.85-32.75Q428.95-32.75 429.48-32.33 430-31.9 430-30.95L430-30.95ZM452.65-27.1L452.65-14.25 457.5-14.25Q461.5-14.25 463.7-15.93 465.9-17.6 465.9-21L465.9-21Q465.9-24.4 463.77-25.98 461.65-27.55 457.7-27.55L457.7-27.55Q456.35-27.55 455.02-27.43 453.7-27.3 452.65-27.1L452.65-27.1ZM457.75-10.85L457.75-10.85 448.6-10.85 448.6-28.2Q448.6-29 449.02-29.43 449.45-29.85 450.25-30.1L450.25-30.1Q451.7-30.55 453.77-30.75 455.85-30.95 457.8-30.95L457.8-30.95Q464.15-30.95 467.07-28.28 470-25.6 470-21.05L470-21.05Q470-17.95 468.67-15.65 467.35-13.35 464.65-12.1 461.95-10.85 457.75-10.85ZM448.6-1.6L448.6-12.8 452.7-12.8 452.7-0.1Q452.4 0 451.9 0.13 451.4 0.25 450.8 0.25L450.8 0.25Q449.7 0.25 449.15-0.2 448.6-0.65 448.6-1.6L448.6-1.6ZM497.7-11.55L497.7-11.55 497.7-11.55Q497.7-7.85 496.3-5.1 494.9-2.35 492.35-0.85 489.8 0.65 486.35 0.65L486.35 0.65Q482.9 0.65 480.32-0.85 477.75-2.35 476.35-5.1 474.95-7.85 474.95-11.55L474.95-11.55Q474.95-15.3 476.37-18.03 477.8-20.75 480.37-22.25 482.95-23.75 486.35-23.75L486.35-23.75Q489.75-23.75 492.3-22.25 494.85-20.75 496.27-18.03 497.7-15.3 497.7-11.55ZM486.35-20.45L486.35-20.45 486.35-20.45Q483-20.45 481.02-18.07 479.05-15.7 479.05-11.55L479.05-11.55Q479.05-7.35 480.97-5 482.9-2.65 486.35-2.65L486.35-2.65Q489.75-2.65 491.67-5.03 493.6-7.4 493.6-11.55L493.6-11.55Q493.6-15.7 491.67-18.07 489.75-20.45 486.35-20.45ZM503.94-6.05L503.94-13.2 507.94-13.2 507.94-6.3Q507.94-4.3 509.09-3.48 510.24-2.65 512.24-2.65L512.24-2.65Q513.09-2.65 514.14-2.95 515.19-3.25 515.89-3.65L515.89-3.65Q516.19-3.35 516.44-2.9 516.69-2.45 516.69-1.85L516.69-1.85Q516.69-0.75 515.39-0.05 514.09 0.65 511.79 0.65L511.79 0.65Q508.29 0.65 506.12-0.9 503.94-2.45 503.94-6.05L503.94-6.05ZM515.09-19.3L505.99-19.3 505.99-22.6 516.14-22.6Q516.29-22.4 516.44-21.95 516.59-21.5 516.59-21L516.59-21Q516.59-20.2 516.19-19.75 515.79-19.3 515.09-19.3L515.09-19.3ZM507.94-28.35L507.94-11.7 503.94-11.7 503.94-29.8Q504.19-29.9 504.72-30.03 505.24-30.15 505.84-30.15L505.84-30.15Q506.89-30.15 507.42-29.73 507.94-29.3 507.94-28.35L507.94-28.35ZM540.74-11.35L523.94-9 523.74-12.15 538.84-14.2Q538.64-16.95 536.94-18.73 535.24-20.5 532.24-20.5L532.24-20.5Q529.14-20.5 527.12-18.28 525.09-16.05 525.09-11.9L525.09-11.9 525.09-10.8Q525.44-6.8 527.72-4.73 529.99-2.65 533.94-2.65L533.94-2.65Q536.04-2.65 537.74-3.35 539.44-4.05 540.44-4.85L540.44-4.85Q540.99-4.5 541.32-4.03 541.64-3.55 541.64-2.95L541.64-2.95Q541.64-2 540.57-1.18 539.49-0.35 537.72 0.15 535.94 0.65 533.74 0.65L533.74 0.65Q529.89 0.65 527.07-0.75 524.24-2.15 522.72-4.93 521.19-7.7 521.19-11.7L521.19-11.7Q521.19-14.55 522.02-16.78 522.84-19 524.32-20.55 525.79-22.1 527.84-22.93 529.89-23.75 532.29-23.75L532.29-23.75Q535.34-23.75 537.67-22.45 539.99-21.15 541.32-18.82 542.64-16.5 542.64-13.5L542.64-13.5Q542.64-12.4 542.14-11.93 541.64-11.45 540.74-11.35L540.74-11.35ZM568.44-15.25L568.44-15.25 568.44-10.15 564.44-10.15 564.44-15.05Q564.44-17.85 562.86-19.15 561.29-20.45 558.64-20.45L558.64-20.45Q556.64-20.45 555.09-19.95 553.54-19.45 552.44-18.8L552.44-18.8 552.44-10.15 548.44-10.15 548.44-18.6Q548.44-19.65 548.86-20.33 549.29-21 550.34-21.65L550.34-21.65Q551.64-22.4 553.79-23.08 555.94-23.75 558.64-23.75L558.64-23.75Q563.19-23.75 565.81-21.68 568.44-19.6 568.44-15.25ZM548.44-1.55L548.44-12.9 552.44-12.9 552.44-0.1Q552.19 0 551.69 0.13 551.19 0.25 550.59 0.25L550.59 0.25Q549.54 0.25 548.99-0.18 548.44-0.6 548.44-1.55L548.44-1.55ZM564.44-1.55L564.44-12.9 568.44-12.9 568.44-0.1Q568.19 0 567.66 0.13 567.14 0.25 566.59 0.25L566.59 0.25Q565.49 0.25 564.96-0.18 564.44-0.6 564.44-1.55L564.44-1.55ZM575.99-6.05L575.99-13.2 579.99-13.2 579.99-6.3Q579.99-4.3 581.14-3.48 582.29-2.65 584.29-2.65L584.29-2.65Q585.14-2.65 586.19-2.95 587.24-3.25 587.94-3.65L587.94-3.65Q588.24-3.35 588.49-2.9 588.74-2.45 588.74-1.85L588.74-1.85Q588.74-0.75 587.44-0.05 586.14 0.65 583.84 0.65L583.84 0.65Q580.34 0.65 578.16-0.9 575.99-2.45 575.99-6.05L575.99-6.05ZM587.14-19.3L578.04-19.3 578.04-22.6 588.19-22.6Q588.34-22.4 588.49-21.95 588.64-21.5 588.64-21L588.64-21Q588.64-20.2 588.24-19.75 587.84-19.3 587.14-19.3L587.14-19.3ZM579.99-28.35L579.99-11.7 575.99-11.7 575.99-29.8Q576.24-29.9 576.76-30.03 577.29-30.15 577.89-30.15L577.89-30.15Q578.94-30.15 579.46-29.73 579.99-29.3 579.99-28.35L579.99-28.35ZM594.18-30.4L594.18-30.4 594.18-30.4Q594.18-31.45 594.93-32.18 595.68-32.9 596.78-32.9L596.78-32.9Q597.93-32.9 598.63-32.18 599.33-31.45 599.33-30.4L599.33-30.4Q599.33-29.35 598.63-28.63 597.93-27.9 596.78-27.9L596.78-27.9Q595.68-27.9 594.93-28.63 594.18-29.35 594.18-30.4ZM594.78-1.55L594.78-13.2 598.78-13.2 598.78-0.1Q598.53 0 598.03 0.13 597.53 0.25 596.93 0.25L596.93 0.25Q595.88 0.25 595.33-0.18 594.78-0.6 594.78-1.55L594.78-1.55ZM598.78-21.5L598.78-11.25 594.78-11.25 594.78-23Q595.03-23.1 595.56-23.23 596.08-23.35 596.68-23.35L596.68-23.35Q597.73-23.35 598.26-22.93 598.78-22.5 598.78-21.5L598.78-21.5ZM614.83-2.6L614.83-2.6 614.83-2.6Q616.93-2.6 618.3-3.03 619.68-3.45 620.28-3.85L620.28-3.85 620.28-11.1 614.08-10.45Q611.48-10.25 610.23-9.3 608.98-8.35 608.98-6.55L608.98-6.55Q608.98-4.7 610.45-3.65 611.93-2.6 614.83-2.6ZM614.78-23.75L614.78-23.75 614.78-23.75Q619.13-23.75 621.68-21.8 624.23-19.85 624.23-15.65L624.23-15.65 624.23-3.8Q624.23-2.7 623.8-2.13 623.38-1.55 622.53-1.05L622.53-1.05Q621.33-0.4 619.33 0.15 617.33 0.7 614.83 0.7L614.83 0.7Q610.13 0.7 607.55-1.15 604.98-3 604.98-6.5L604.98-6.5Q604.98-9.75 607.15-11.48 609.33-13.2 613.18-13.55L613.18-13.55 620.28-14.25 620.28-15.65Q620.28-18.15 618.78-19.3 617.28-20.45 614.73-20.45L614.73-20.45Q612.68-20.45 610.8-19.85 608.93-19.25 607.48-18.5L607.48-18.5Q607.08-18.85 606.75-19.33 606.43-19.8 606.43-20.3L606.43-20.3Q606.43-21.6 607.88-22.3L607.88-22.3Q609.23-23 611-23.38 612.78-23.75 614.78-23.75ZM631.93-1.55L631.93-13.2 635.93-12.6 635.93-0.1Q635.68 0 635.18 0.13 634.68 0.25 634.08 0.25L634.08 0.25Q633.03 0.25 632.48-0.18 631.93-0.6 631.93-1.55L631.93-1.55ZM635.93-30.95L635.93-10.7 631.93-11.25 631.93-32.4Q632.18-32.5 632.7-32.63 633.23-32.75 633.78-32.75L633.78-32.75Q634.88-32.75 635.4-32.33 635.93-31.9 635.93-30.95L635.93-30.95Z" opacity="1" transform="matrix(1,0,0,1,0,0)" fill="#ffffff" class="slogan-text-1" data-fill-palette-color="secondary" id="text-1"></path></svg></g></svg></g></svg></g></svg></g><g><svg viewBox="0 0 64.12770603544566 84.24089653601442" height="84.24089653601442" width="64.12770603544566"><g><svg xmlns="http://www.w3.org/2000/svg" xmlns:xlink="http://www.w3.org/1999/xlink" version="1.1" x="0" y="0" viewBox="14.5 3.3 71.1 93.4" enable-background="new 0 0 100 100" xml:space="preserve" height="84.24089653601442" width="64.12770603544566" class="icon-icon-0" data-fill-palette-color="accent" id="icon-0"><path d="M52.1 84.4V92.5H64.3C65.5 92.5 66.4 93.5 66.4 94.6S65.4 96.7 64.3 96.7H35.7C34.5 96.7 33.6 95.7 33.6 94.6S34.6 92.5 35.7 92.5H47.9V84.4H18.7C16.4 84.4 14.5 82.5 14.5 80.2V39.9C14.5 37.6 16.4 35.7 18.7 35.7H33C34.2 35.7 35.1 36.7 35.1 37.8S34.1 39.9 33 39.9H18.7V80.2H81.3V39.9H67.1C65.9 39.9 65 38.9 65 37.8S66 35.7 67.1 35.7H81.4C83.7 35.7 85.6 37.6 85.6 39.9V80.2C85.6 82.5 83.7 84.4 81.4 84.4zM50.2 3.3C53.7 3.4 56.5 6.3 56.4 9.8 56.3 12.5 54.6 14.8 52.2 15.6V68.5C52.2 69.7 51.2 70.6 50.1 70.6 48.9 70.6 48 69.6 48 68.5V15.6C47.1 15.3 46.2 14.7 45.5 14 44.3 12.8 43.7 11.2 43.7 9.5 43.8 6.1 46.6 3.3 50.1 3.3zM50.1 7.5C48.9 7.5 48 8.4 47.9 9.6 47.9 10.2 48.1 10.7 48.5 11.1S49.4 11.7 50 11.8H50.1C51.2 11.8 52.2 10.9 52.2 9.7 52.1 8.5 51.2 7.6 50.1 7.5M57.2 58.6V25.9C57.2 22.1 60.3 19 64.1 19H68.9C69.8 16.5 72.1 14.8 74.9 14.8 78.4 14.8 81.3 17.7 81.3 21.2S78.4 27.6 74.9 27.6C72.1 27.6 69.8 25.8 68.9 23.4H64.1C62.6 23.4 61.5 24.6 61.5 26V58.7C61.5 59.9 60.5 60.8 59.4 60.8 58.2 60.8 57.2 59.8 57.2 58.6M72.8 21.2C72.8 22.4 73.7 23.3 74.9 23.3S77 22.4 77 21.2 76.1 19 74.9 19 72.8 20 72.8 21.2M38.5 58.6V25.9C38.5 24.4 37.3 23.3 35.9 23.3H31.1C30.2 25.8 27.9 27.5 25.1 27.5 21.6 27.5 18.7 24.6 18.7 21.1S21.6 14.7 25.1 14.7C27.9 14.7 30.2 16.5 31.1 18.9H35.9C39.7 18.9 42.8 22 42.8 25.8V58.5C42.8 59.7 41.8 60.6 40.7 60.6S38.5 59.8 38.5 58.6M27.2 21.2C27.2 20 26.3 19.1 25.1 19.1S23 20 23 21.2 23.9 23.3 25.1 23.3 27.2 22.3 27.2 21.2" fill="#ffffff" data-fill-palette-color="accent"></path></svg></g></svg></g></svg></g><defs></defs></svg><rect width="395.52" height="69.27457551617441" fill="none" stroke="none" visibility="hidden"></rect></g></svg></g></svg>