<?xml version="1.0" encoding="utf-8"?>
<!-- Generator: Adobe Illustrator 27.9.0, SVG Export Plug-In . SVG Version: 6.00 Build 0)  -->
<svg version="1.1" id="icon-0" xmlns:svgjs="http://svgjs.dev/svgjs"
	 xmlns="http://www.w3.org/2000/svg" xmlns:xlink="http://www.w3.org/1999/xlink" x="0px" y="0px" viewBox="0 0 1500 1500"
	 style="enable-background:new 0 0 1500 1500;" xml:space="preserve">
<style type="text/css">
	.st0{fill:#EDEAE2;}
	.st1{fill:#2B6CB1;}
	.st2{fill:#0085AD;}
	.st3{display:none;fill:none;}
	.st4{fill:#A04732;}
	.st5{font-family:'Poppins-SemiBold';}
	.st6{font-size:106.8952px;}
	.st7{font-family:'Poppins-Light';}
	.st8{font-size:35.2062px;}
</style>
<rect x="0.3" y="0" class="st0" width="1498" height="1502.9"/>
<g transform="matrix(0.6666666666666666,0,0,0.6666666666666666,249.39393939393938,660.7512500561248)">
	<g id="tight-bounds" transform="matrix(1,0,0,1,0.2400000000000091,0.3627122419127886)">
		<g>
			<g>
				<path id="yte-0" class="st1" d="M237.4-421.6L237.4-421.6c2.9,0,5.3,6.7,5.3,15v168.7c0,8.3-2.4,15-5.3,15h0
					c-2.9,0-5.3-6.7-5.3-15v-168.7C232-414.9,234.4-421.6,237.4-421.6z"/>
			</g>
			<g transform="matrix(1,0,0,1,85.4495209196197,10.37264295263757)">
				<g id="textblocktransform">
					<g>
						<g transform="matrix(1,0,0,1,0,0)">
							<path id="text-0" class="st1" d="M258.7-369.5L258.7-369.5L258.7-369.5c0,14.4-3.5,25.3-10.4,32.7
								c-6.9,7.4-17.1,11.1-30.5,11.1l0,0c-3.3,0-6.6-0.1-9.7-0.3c-3.2-0.2-6.1-0.7-8.9-1.4l0,0v-82.1c2.3-0.5,4.8-0.8,7.6-1
								s5.9-0.3,9.5-0.3l0,0c7.8,0,14.9,1.4,21.3,4.2c6.4,2.8,11.5,7.3,15.4,13.3C256.8-387.4,258.7-379.4,258.7-369.5z M273-369.5
								L273-369.5L273-369.5c0-11.9-2.4-21.7-7.1-29.5c-4.8-7.8-11.4-13.7-19.8-17.7c-8.5-4-18.3-5.9-29.6-5.9l0,0
								c-4.5,0-9,0.2-13.5,0.5c-4.5,0.3-8.5,1.1-12.1,2.2l0,0c-1.8,0.6-3.2,1.3-4.2,2.3c-1,1-1.5,2.4-1.5,4.2l0,0v88.7
								c0,3.8,2.4,6.4,7.2,7.9l0,0c4.1,1.3,8.5,2,13.2,2.3c4.6,0.3,8.8,0.4,12.3,0.4l0,0c11.2,0,20.9-2,29.1-6
								c8.2-4,14.6-10.2,19.2-18.4C270.8-346.6,273-357,273-369.5z M358.3-355l-58,8.1l-0.7-10.9l52.1-7.1
								c-0.5-6.3-2.6-11.5-6.6-15.6c-3.9-4.1-9.3-6.1-16.2-6.1l0,0c-7.1,0-13,2.6-17.7,7.7c-4.6,5.1-7,12.5-7,22l0,0v3.8
								c0.8,9.2,3.8,16.2,9,21c5.2,4.8,12.4,7.2,21.5,7.2l0,0c4.8,0,9.2-0.8,13.1-2.4c3.9-1.6,7-3.3,9.3-5.2l0,0
								c1.3,0.8,2.3,1.7,3,2.8c0.8,1.1,1.1,2.3,1.1,3.7l0,0c0,2.2-1.2,4.2-3.7,6.1c-2.5,1.9-5.7,3.4-9.8,4.6
								c-4.1,1.2-8.6,1.7-13.7,1.7l0,0c-8.9,0-16.5-1.6-23.1-4.8c-6.5-3.2-11.5-8-15-14.4c-3.5-6.4-5.2-14.2-5.2-23.4l0,0
								c0-6.6,0.9-12.4,2.8-17.5c1.9-5.1,4.6-9.4,7.9-13c3.4-3.6,7.5-6.3,12.2-8.2c4.7-1.9,9.8-2.8,15.4-2.8l0,0
								c7,0,13.2,1.5,18.5,4.5c5.4,3,9.6,7.2,12.6,12.5c3.1,5.3,4.6,11.5,4.6,18.4l0,0c0,2.5-0.6,4.3-1.7,5.4
								C362-355.9,360.3-355.3,358.3-355L358.3-355z M440.8-382.1L388-315.9h-5.5c-0.8-0.7-1.5-1.6-2-2.7c-0.5-1.1-0.8-2.2-0.8-3.3
								l0,0c0-1.4,0.3-2.7,0.9-3.9c0.6-1.2,1.4-2.4,2.2-3.5l0,0l53-66.3h5.3c0.9,0.8,1.6,1.7,2.1,2.8c0.5,1,0.8,2.2,0.8,3.5l0,0
								c0,1.3-0.3,2.5-0.9,3.6C442.6-384.6,441.8-383.4,440.8-382.1L440.8-382.1z M385.9-395.6h53.3v11.4h-56.9
								c-0.3-0.6-0.7-1.4-1-2.4c-0.3-1-0.5-2.1-0.5-3.3l0,0c0-2,0.5-3.4,1.4-4.3C383-395.1,384.3-395.6,385.9-395.6L385.9-395.6z
								 M439.9-315.9h-56.4v-11.2h60.2c0.3,0.5,0.7,1.2,1,2.1c0.3,1,0.5,2.1,0.5,3.4l0,0c0,1.8-0.5,3.2-1.4,4.2
								C442.9-316.4,441.6-315.9,439.9-315.9L439.9-315.9z M494.2-324.8L494.2-324.8L494.2-324.8c4.8,0,8.8-0.5,12-1.5
								c3.2-1,5.4-1.9,6.8-2.8l0,0v-25l-21.4,2.2c-6,0.5-10.4,1.8-13.3,4c-2.9,2.2-4.3,5.3-4.3,9.5l0,0c0,4.3,1.7,7.6,5.1,10
								C482.5-326.1,487.5-324.8,494.2-324.8z M494-397.8L494-397.8L494-397.8c10,0,17.9,2.2,23.8,6.7c5.9,4.5,8.8,11.6,8.8,21.2
								l0,0v40.9c0,2.5-0.5,4.5-1.4,5.8c-1,1.3-2.5,2.6-4.4,3.7l0,0c-2.8,1.5-6.4,2.9-11,4.1s-9.8,1.9-15.5,1.9l0,0
								c-10.8,0-19.2-2.1-25.1-6.4c-5.9-4.3-8.9-10.4-8.9-18.5l0,0c0-7.5,2.5-13.2,7.5-17.2c5-4,11.9-6.3,20.8-7.1l0,0l24.5-2.4
								v-4.8c0-5.8-1.7-10-5.2-12.6c-3.5-2.6-8.1-4-14-4l0,0c-4.7,0-9.2,0.7-13.5,2.1c-4.3,1.4-8.2,2.9-11.5,4.7l0,0
								c-0.9-0.8-1.7-1.8-2.5-2.9c-0.8-1.1-1.1-2.2-1.1-3.3l0,0c0-3,1.7-5.3,5-6.9l0,0c3.1-1.6,6.7-2.9,10.8-3.7
								C485.1-397.4,489.4-397.8,494-397.8z M565.7-380.8L565.7-380.8v27.3h-13.8v-26.2c0-2.6,0.5-4.8,1.5-6.3
								c1-1.5,2.6-3.1,4.9-4.6l0,0c3-2,7.1-3.7,12.3-5.1c5.2-1.4,10.9-2.1,17.3-2.1l0,0c9.2,0,13.8,2.3,13.8,6.9l0,0
								c0,1.2-0.2,2.2-0.5,3.2c-0.3,1-0.8,1.8-1.4,2.5l0,0c-1.2-0.2-2.6-0.5-4.5-0.7c-1.8-0.2-3.7-0.3-5.5-0.3l0,0
								c-5.3,0-10,0.5-14,1.6C571.6-383.6,568.3-382.3,565.7-380.8z M551.9-321.2v-40.2l13.8,2.1v43.1c-0.6,0.2-1.4,0.5-2.6,0.8
								c-1.2,0.3-2.4,0.4-3.8,0.4l0,0c-2.4,0-4.3-0.5-5.5-1.5C552.5-317.5,551.9-319,551.9-321.2L551.9-321.2z M616.6-420.8
								L616.6-420.8L616.6-420.8c0-2.4,0.9-4.5,2.6-6.1c1.7-1.7,3.9-2.5,6.4-2.5l0,0c2.6,0,4.8,0.8,6.4,2.5c1.6,1.7,2.4,3.7,2.4,6.1
								l0,0c0,2.4-0.8,4.5-2.4,6.1c-1.6,1.7-3.7,2.5-6.4,2.5l0,0c-2.5,0-4.7-0.8-6.4-2.5C617.4-416.3,616.6-418.4,616.6-420.8z
								 M618.6-321.2v-40.2h13.8v45.2c-0.6,0.2-1.4,0.5-2.6,0.8c-1.2,0.3-2.4,0.4-3.8,0.4l0,0c-2.4,0-4.3-0.5-5.5-1.5
								C619.3-317.5,618.6-319,618.6-321.2L618.6-321.2z M632.5-390.1v35.4h-13.8v-40.6c0.6-0.2,1.5-0.5,2.7-0.8
								c1.2-0.3,2.5-0.4,3.9-0.4l0,0c2.4,0,4.2,0.5,5.4,1.4C631.8-394,632.5-392.4,632.5-390.1L632.5-390.1z M733.4-355.7
								L733.4-355.7L733.4-355.7c0,8.5-1.6,15.9-4.8,22.3c-3.2,6.3-7.8,11.2-13.6,14.7c-5.9,3.5-12.8,5.2-20.7,5.2l0,0
								c-7.9,0-14.9-1.7-20.8-5.2c-5.9-3.5-10.5-8.3-13.7-14.7c-3.2-6.3-4.8-13.7-4.8-22.3l0,0c0-8.6,1.6-16.1,4.9-22.4
								c3.3-6.3,7.9-11.1,13.8-14.6c5.9-3.5,12.8-5.2,20.6-5.2l0,0c7.8,0,14.7,1.7,20.5,5.2c5.9,3.5,10.4,8.3,13.7,14.6
								C731.8-371.8,733.4-364.4,733.4-355.7z M694.2-386.5L694.2-386.5L694.2-386.5c-7.7,0-13.8,2.7-18.4,8.2
								c-4.5,5.5-6.8,13-6.8,22.5l0,0c0,9.7,2.2,17.2,6.6,22.6c4.4,5.4,10.6,8.1,18.6,8.1l0,0c7.8,0,13.9-2.7,18.4-8.2
								c4.4-5.5,6.7-13,6.7-22.5l0,0c0-9.5-2.2-17.1-6.7-22.5C708.2-383.7,702.1-386.5,694.2-386.5z M809.1-321.4v-57.1h14v62.3
								c-0.6,0.2-1.4,0.5-2.6,0.8c-1.2,0.3-2.4,0.4-3.8,0.4l0,0c-2.5,0-4.4-0.5-5.7-1.6C809.8-317.6,809.1-319.2,809.1-321.4
								L809.1-321.4z M823.1-415.3v48.3h-14v-53.5c0.6-0.2,1.5-0.5,2.7-0.8c1.2-0.3,2.5-0.4,3.9-0.4l0,0c2.5,0,4.4,0.5,5.6,1.4
								C822.5-419.2,823.1-417.6,823.1-415.3L823.1-415.3z M920.8-368.5L920.8-368.5v17.6H907v-16.9c0-6.4-1.8-11.2-5.5-14.2
								c-3.6-3-8.5-4.5-14.6-4.5l0,0c-4.6,0-8.7,0.6-12.3,1.7s-6.6,2.5-9.1,4l0,0v29.9h-13.8v-29.2c0-2.4,0.5-4.4,1.4-6
								c1-1.5,2.7-3.1,5.1-4.6l0,0c3-1.7,7-3.4,11.9-4.9c4.9-1.5,10.5-2.3,16.7-2.3l0,0c10.5,0,18.7,2.4,24.7,7.1
								C917.8-385.9,920.8-378.5,920.8-368.5z M851.8-321.2v-39.2h13.8v44.2c-0.6,0.2-1.4,0.5-2.6,0.8c-1.2,0.3-2.4,0.4-3.8,0.4l0,0
								c-2.4,0-4.3-0.5-5.5-1.5C852.4-317.5,851.8-319,851.8-321.2L851.8-321.2z M907-321.2v-39.2h13.8v44.2
								c-0.6,0.2-1.5,0.5-2.7,0.8c-1.2,0.3-2.4,0.4-3.7,0.4l0,0c-2.5,0-4.4-0.5-5.6-1.5C907.6-317.5,907-319,907-321.2L907-321.2z
								 M991-379.9h-32.8v-11.2h36.6c0.3,0.5,0.7,1.2,1,2.1c0.3,1,0.5,2.1,0.5,3.4l0,0c0,1.8-0.5,3.2-1.4,4.2
								C994.1-380.4,992.8-379.9,991-379.9L991-379.9z M960.7-402L960.7-402v20.2H947v-20.9c0-6.8,1.2-12.3,3.7-16.5
								c2.5-4.2,6.1-7.3,10.7-9.3c4.7-2,10.2-3,16.7-3l0,0c6.6,0,11.7,0.9,15.4,2.6c3.8,1.7,5.6,3.9,5.6,6.4l0,0
								c0,1.3-0.3,2.4-0.8,3.5c-0.5,1-1.2,2-2.1,2.9l0,0c-2.1-1.2-4.7-2.1-7.8-2.9c-3.1-0.7-6.1-1.1-9-1.1l0,0
								c-7,0-11.9,1.4-14.7,4.3C962-412.9,960.7-408.3,960.7-402z M947-321.2v-68.2h13.8v73.2c-0.6,0.2-1.4,0.5-2.6,0.8
								c-1.2,0.3-2.4,0.4-3.8,0.4l0,0c-2.4,0-4.3-0.5-5.5-1.5C947.7-317.5,947-319,947-321.2L947-321.2z M1089.5-355.7L1089.5-355.7
								L1089.5-355.7c0,8.5-1.6,15.9-4.8,22.3c-3.2,6.3-7.8,11.2-13.6,14.7c-5.9,3.5-12.8,5.2-20.7,5.2l0,0
								c-7.9,0-14.9-1.7-20.8-5.2c-5.9-3.5-10.5-8.3-13.7-14.7c-3.2-6.3-4.8-13.7-4.8-22.3l0,0c0-8.6,1.6-16.1,4.9-22.4
								c3.3-6.3,7.9-11.1,13.8-14.6c5.9-3.5,12.8-5.2,20.6-5.2l0,0c7.8,0,14.7,1.7,20.5,5.2c5.9,3.5,10.4,8.3,13.7,14.6
								C1087.9-371.8,1089.5-364.4,1089.5-355.7z M1050.4-386.5L1050.4-386.5L1050.4-386.5c-7.7,0-13.8,2.7-18.4,8.2
								c-4.6,5.5-6.8,13-6.8,22.5l0,0c0,9.7,2.2,17.2,6.7,22.6c4.4,5.4,10.6,8.1,18.5,8.1l0,0c7.8,0,14-2.7,18.4-8.2
								c4.4-5.5,6.6-13,6.6-22.5l0,0c0-9.5-2.2-17.1-6.6-22.5C1064.3-383.7,1058.2-386.5,1050.4-386.5z M1111.1-336.8v-24.7h13.8
								v23.8c0,4.6,1.3,7.8,4,9.7c2.6,1.9,6.3,2.9,10.9,2.9l0,0c2,0,4.1-0.3,6.6-1c2.4-0.7,4.4-1.5,6-2.4l0,0
								c0.7,0.7,1.3,1.6,1.9,2.6c0.6,1,0.9,2.2,0.9,3.6l0,0c0,2.5-1.5,4.6-4.5,6.2c-3,1.6-7.1,2.4-12.4,2.4l0,0
								c-8.1,0-14.6-1.8-19.6-5.3C1113.6-322.5,1111.1-328.5,1111.1-336.8L1111.1-336.8z M1149.6-382.5h-31.4v-11.4h35
								c0.3,0.5,0.7,1.2,1,2.2s0.5,2.1,0.5,3.3l0,0c0,1.8-0.5,3.3-1.4,4.3C1152.5-383,1151.2-382.5,1149.6-382.5L1149.6-382.5z
								 M1124.9-413.7v57.5h-13.8v-62.5c0.6-0.2,1.5-0.5,2.7-0.8c1.2-0.3,2.5-0.4,3.9-0.4l0,0c2.4,0,4.2,0.5,5.4,1.4
								C1124.3-417.5,1124.9-415.9,1124.9-413.7L1124.9-413.7z M1238.1-355l-58,8.1l-0.7-10.9l52.1-7.1c-0.5-6.3-2.6-11.5-6.6-15.6
								c-3.9-4.1-9.3-6.1-16.2-6.1l0,0c-7.1,0-13,2.6-17.7,7.7c-4.6,5.1-7,12.5-7,22l0,0v3.8c0.8,9.2,3.8,16.2,9,21
								c5.2,4.8,12.4,7.2,21.5,7.2l0,0c4.8,0,9.2-0.8,13.1-2.4c3.9-1.6,7-3.3,9.3-5.2l0,0c1.3,0.8,2.3,1.7,3,2.8
								c0.8,1.1,1.1,2.3,1.1,3.7l0,0c0,2.2-1.2,4.2-3.7,6.1c-2.5,1.9-5.7,3.4-9.8,4.6c-4.1,1.2-8.6,1.7-13.7,1.7l0,0
								c-8.9,0-16.5-1.6-23.1-4.8c-6.5-3.2-11.5-8-15-14.4c-3.5-6.4-5.2-14.2-5.2-23.4l0,0c0-6.6,0.9-12.4,2.8-17.5
								c1.9-5.1,4.6-9.4,7.9-13c3.4-3.6,7.5-6.3,12.2-8.2c4.7-1.9,9.8-2.8,15.4-2.8l0,0c7,0,13.2,1.5,18.5,4.5
								c5.4,3,9.6,7.2,12.6,12.5c3.1,5.3,4.6,11.5,4.6,18.4l0,0c0,2.5-0.6,4.3-1.7,5.4C1241.8-355.9,1240.2-355.3,1238.1-355
								L1238.1-355z M1301.6-386.3L1301.6-386.3L1301.6-386.3c-7.8,0-14.3,2.6-19.5,7.9c-5.2,5.3-7.8,12.9-7.8,22.8l0,0
								c0,9.8,2.5,17.3,7.5,22.6c5,5.3,11.6,7.9,19.8,7.9l0,0c4.8,0,8.9-0.7,12.1-2c3.2-1.3,6.1-2.8,8.6-4.6l0,0
								c1.3,0.7,2.3,1.6,3.1,2.6c0.8,1,1.2,2.3,1.2,3.8l0,0c0,3.2-2.4,5.9-7.2,8.2c-4.8,2.3-10.7,3.4-17.8,3.4l0,0
								c-7.9,0-15-1.5-21.3-4.6c-6.3-3-11.2-7.7-14.7-13.9c-3.6-6.2-5.3-14-5.3-23.5l0,0c0-9.3,1.8-17.1,5.5-23.4
								c3.7-6.3,8.7-11,14.9-14.2c6.3-3.2,13.2-4.7,20.6-4.7l0,0c7.1,0,13,1.2,17.7,3.6c4.7,2.4,7,5.2,7,8.3l0,0
								c0,1.4-0.4,2.6-1.2,3.6c-0.8,1-1.8,1.8-3.1,2.4l0,0c-2.5-1.7-5.3-3.2-8.4-4.5C1310.2-385.7,1306.3-386.3,1301.6-386.3z
								 M1416.3-366.4v16.2h-13.8v-15.9c0-6.9-1.9-12-5.8-15.4c-3.9-3.3-8.8-5-14.9-5l0,0c-4.5,0-8.7,0.9-12.5,2.6
								c-3.9,1.7-7.1,3.8-9.8,6.2l0,0l-2.6-11.2c2.8-2,6.4-3.9,11-6c4.5-2,9.8-3,15.8-3l0,0c9.5,0,17.4,2.6,23.5,7.8
								S1416.3-377,1416.3-366.4L1416.3-366.4z M1347.5-321.2v-40.2h13.8v45.2c-0.6,0.2-1.4,0.5-2.6,0.8c-1.2,0.3-2.4,0.4-3.8,0.4
								l0,0c-2.4,0-4.3-0.5-5.5-1.5C1348.1-317.5,1347.5-319,1347.5-321.2L1347.5-321.2z M1402.5-321.2v-40l13.8,0.2v44.9
								c-0.6,0.2-1.5,0.5-2.7,0.8c-1.2,0.3-2.5,0.4-3.7,0.4l0,0c-2.5,0-4.4-0.5-5.6-1.5C1403.2-317.5,1402.5-319,1402.5-321.2
								L1402.5-321.2z M1361.3-422.7v68h-13.8v-73c0.6-0.2,1.5-0.5,2.7-0.8c1.2-0.3,2.5-0.4,3.9-0.4l0,0c2.4,0,4.2,0.5,5.5,1.4
								C1360.7-426.5,1361.3-424.9,1361.3-422.7L1361.3-422.7z"/>
						</g>
					</g>
					<g transform="matrix(1,0,0,1,0,46.867927286850744)">
						<g transform="matrix(1,0,0,1,0,0)">
							<path id="text-1" class="st2" d="M199.4-292.1L199.4-292.1L199.4-292.1c-3,0-5.6-0.6-7.7-1.7c-2.1-1.1-3.7-2.7-4.8-4.7
								c-1.1-2-1.7-4.4-1.7-7.1l0,0v-4.9h4.9v4.5c0,3.2,0.9,5.6,2.7,7.2c1.8,1.6,4,2.4,6.6,2.4l0,0c2.6,0,4.9-0.8,6.7-2.4
								c1.8-1.6,2.7-4,2.7-7.2l0,0v-4.5h4.9v4.9c0,2.7-0.5,5-1.6,7.1c-1.1,2-2.7,3.6-4.9,4.7C205-292.6,202.4-292.1,199.4-292.1z
								 M190-327.5v19.6h-4.9v-21.4c0.2-0.1,0.5-0.2,0.9-0.3c0.4-0.1,0.9-0.1,1.3-0.1l0,0c0.9,0,1.5,0.2,2,0.5
								C189.8-328.9,190-328.3,190-327.5L190-327.5z M213.6-327.5v19.6h-4.9v-21.4c0.2-0.1,0.5-0.2,0.9-0.3c0.4-0.1,0.9-0.1,1.3-0.1
								l0,0c0.9,0,1.5,0.2,2,0.5C213.4-328.9,213.6-328.3,213.6-327.5L213.6-327.5z M247.5-311.2L247.5-311.2v6.1h-4.8v-5.9
								c0-2.2-0.6-3.9-1.9-4.9c-1.3-1-3-1.6-5.1-1.6l0,0c-1.6,0-3,0.2-4.3,0.6c-1.2,0.4-2.3,0.9-3.2,1.4l0,0v10.4h-4.8v-10.2
								c0-0.8,0.2-1.5,0.5-2.1c0.3-0.5,0.9-1.1,1.8-1.6l0,0c1-0.6,2.4-1.2,4.2-1.7c1.7-0.5,3.7-0.8,5.8-0.8l0,0
								c3.7,0,6.5,0.8,8.6,2.5C246.5-317.3,247.5-314.7,247.5-311.2z M223.4-294.7v-13.7h4.8v15.4c-0.2,0.1-0.5,0.2-0.9,0.3
								c-0.4,0.1-0.8,0.1-1.3,0.1l0,0c-0.8,0-1.5-0.2-1.9-0.5C223.7-293.4,223.4-294,223.4-294.7L223.4-294.7z M242.7-294.7v-13.7
								h4.8v15.4c-0.2,0.1-0.5,0.2-0.9,0.3c-0.4,0.1-0.8,0.1-1.3,0.1l0,0c-0.9,0-1.5-0.2-2-0.5C242.9-293.4,242.7-294,242.7-294.7
								L242.7-294.7z M257-294.7v-14l4.8,0.7v15c-0.2,0.1-0.5,0.2-0.9,0.3c-0.4,0.1-0.8,0.1-1.3,0.1l0,0c-0.8,0-1.5-0.2-1.9-0.5
								C257.2-293.4,257-294,257-294.7L257-294.7z M261.8-330.1v24.4l-4.8-0.7v-25.5c0.2-0.1,0.5-0.2,0.9-0.3
								c0.4-0.1,0.9-0.1,1.3-0.1l0,0c0.9,0,1.5,0.2,2,0.5C261.6-331.4,261.8-330.9,261.8-330.1L261.8-330.1z M293.3-306.5l-20.2,2.8
								l-0.2-3.8l18.2-2.5c-0.2-2.2-0.9-4-2.3-5.5c-1.4-1.4-3.3-2.1-5.7-2.1l0,0c-2.5,0-4.5,0.9-6.2,2.7c-1.6,1.8-2.4,4.3-2.4,7.7
								l0,0v1.3c0.3,3.2,1.3,5.6,3.2,7.3c1.8,1.7,4.3,2.5,7.5,2.5l0,0c1.7,0,3.2-0.3,4.6-0.8c1.4-0.6,2.4-1.2,3.3-1.8l0,0
								c0.4,0.3,0.8,0.6,1.1,1c0.3,0.4,0.4,0.8,0.4,1.3l0,0c0,0.8-0.4,1.5-1.3,2.1c-0.9,0.7-2,1.2-3.4,1.6c-1.4,0.4-3,0.6-4.8,0.6
								l0,0c-3.1,0-5.8-0.6-8-1.7c-2.3-1.1-4-2.8-5.2-5c-1.2-2.2-1.8-4.9-1.8-8.1l0,0c0-2.3,0.3-4.3,1-6.1c0.7-1.8,1.6-3.3,2.8-4.5
								c1.2-1.2,2.6-2.2,4.2-2.9c1.6-0.7,3.4-1,5.4-1l0,0c2.4,0,4.6,0.5,6.5,1.6c1.9,1,3.3,2.5,4.4,4.4c1.1,1.9,1.6,4,1.6,6.4l0,0
								c0,0.9-0.2,1.5-0.6,1.9C294.6-306.8,294-306.6,293.3-306.5L293.3-306.5z M312.5-296L312.5-296L312.5-296
								c1.7,0,3.1-0.2,4.2-0.5c1.1-0.3,1.9-0.7,2.4-1l0,0v-8.7l-7.5,0.8c-2.1,0.2-3.6,0.6-4.6,1.4c-1,0.8-1.5,1.9-1.5,3.3l0,0
								c0,1.5,0.6,2.6,1.8,3.5C308.4-296.4,310.2-296,312.5-296z M312.4-321.4L312.4-321.4L312.4-321.4c3.5,0,6.3,0.8,8.3,2.3
								c2,1.6,3.1,4,3.1,7.4l0,0v14.3c0,0.9-0.2,1.6-0.5,2c-0.3,0.5-0.9,0.9-1.5,1.3l0,0c-1,0.5-2.2,1-3.9,1.4s-3.4,0.7-5.4,0.7l0,0
								c-3.8,0-6.7-0.7-8.8-2.2c-2.1-1.5-3.1-3.6-3.1-6.4l0,0c0-2.6,0.9-4.6,2.6-6c1.7-1.4,4.2-2.2,7.2-2.5l0,0l8.5-0.8v-1.7
								c0-2-0.6-3.5-1.8-4.4c-1.2-0.9-2.8-1.4-4.9-1.4l0,0c-1.6,0-3.2,0.2-4.7,0.7c-1.5,0.5-2.8,1-4,1.6l0,0c-0.3-0.3-0.6-0.6-0.9-1
								c-0.3-0.4-0.4-0.8-0.4-1.2l0,0c0-1,0.6-1.8,1.7-2.4l0,0c1.1-0.6,2.3-1,3.8-1.3C309.3-321.3,310.8-321.4,312.4-321.4z
								 M352.2-300.3L352.2-300.3L352.2-300.3c0,2.6-0.9,4.6-2.8,6s-4.6,2.2-8.2,2.2l0,0c-3,0-5.5-0.5-7.5-1.4
								c-1.9-0.9-2.9-2-2.9-3.1l0,0c0-0.5,0.1-1,0.4-1.4c0.3-0.5,0.7-0.8,1.2-1.1l0,0c1.1,0.8,2.3,1.5,3.8,2.1c1.4,0.6,3.1,1,4.9,1
								l0,0c4.2,0,6.3-1.4,6.3-4.2l0,0c0-1.2-0.4-2.1-1.1-2.9c-0.7-0.7-1.7-1.3-3.1-1.6l0,0l-5-1.3c-2.4-0.6-4.2-1.5-5.4-2.8
								c-1.1-1.3-1.7-2.8-1.7-4.7l0,0c0-2.1,0.9-4,2.6-5.5s4.4-2.3,7.9-2.3l0,0c1.9,0,3.5,0.2,4.9,0.6c1.4,0.4,2.5,0.9,3.3,1.5
								c0.8,0.6,1.2,1.3,1.2,2l0,0c0,0.5-0.1,1-0.4,1.4c-0.3,0.4-0.6,0.7-1,0.9l0,0c-0.5-0.3-1.1-0.7-1.8-1.1
								c-0.7-0.4-1.6-0.7-2.6-1c-1-0.3-2.1-0.4-3.3-0.4l0,0c-1.8,0-3.2,0.3-4.3,1s-1.6,1.6-1.6,2.9l0,0c0,0.9,0.3,1.7,0.9,2.3
								c0.6,0.7,1.6,1.2,3,1.5l0,0l4.2,1c2.7,0.6,4.8,1.7,6.1,3C351.5-304.3,352.2-302.5,352.2-300.3z M383.6-310.5v5.7h-4.8v-5.5
								c0-2.4-0.7-4.2-2-5.4c-1.3-1.2-3.1-1.7-5.2-1.7l0,0c-1.6,0-3,0.3-4.4,0.9c-1.3,0.6-2.5,1.3-3.4,2.2l0,0l-0.9-3.9
								c1-0.7,2.2-1.4,3.8-2.1c1.6-0.7,3.4-1,5.5-1l0,0c3.3,0,6.1,0.9,8.2,2.7S383.6-314.2,383.6-310.5L383.6-310.5z M359.6-294.7
								v-14h4.8v15.8c-0.2,0.1-0.5,0.2-0.9,0.3c-0.4,0.1-0.8,0.1-1.3,0.1l0,0c-0.8,0-1.5-0.2-1.9-0.5
								C359.9-293.4,359.6-294,359.6-294.7L359.6-294.7z M378.8-294.7v-14l4.8,0.1v15.6c-0.2,0.1-0.5,0.2-0.9,0.3
								c-0.4,0.1-0.8,0.1-1.3,0.1l0,0c-0.9,0-1.5-0.2-2-0.5C379-293.4,378.8-294,378.8-294.7L378.8-294.7z M364.4-330.1v23.7h-4.8
								v-25.5c0.2-0.1,0.5-0.2,0.9-0.3c0.4-0.1,0.9-0.1,1.4-0.1l0,0c0.8,0,1.5,0.2,1.9,0.5C364.2-331.4,364.4-330.9,364.4-330.1
								L364.4-330.1z M419.1-306L419.1-306h-4.3c-1.1-1.7-2.3-3.5-3.5-5.3c-1.2-1.9-2.4-3.8-3.6-5.7c-1.2-1.9-2.3-3.8-3.4-5.7
								c-1.1-1.9-2-3.6-2.9-5.2l0,0c0.2-0.4,0.5-0.9,0.9-1.3c0.4-0.4,1-0.6,1.7-0.6l0,0c0.8,0,1.4,0.2,1.8,0.6
								c0.4,0.4,0.8,1,1.3,1.8l0,0c0.5,0.9,1.1,2,1.8,3.1c0.7,1.1,1.3,2.4,2.1,3.6c0.7,1.3,1.4,2.5,2.2,3.8s1.4,2.4,2,3.5
								c0.6,1.1,1.2,2,1.6,2.8l0,0h0.2c1.4-2.3,2.7-4.5,3.9-6.6c1.2-2.1,2.3-4.1,3.4-6.1c1.1-2,2.1-4,3.2-6l0,0
								c0.2-0.2,0.5-0.3,0.9-0.3c0.4-0.1,0.7-0.1,1-0.1l0,0c0.8,0,1.3,0.2,1.7,0.5c0.4,0.4,0.6,0.9,0.6,1.5l0,0
								c0,0.4-0.3,1.3-0.9,2.6c-0.6,1.3-1.5,2.9-2.6,4.9c-1.1,2-2.4,4.1-4,6.6C422.6-311.3,420.9-308.7,419.1-306z M414.5-294.8
								v-13.5h4.9v15.3c-0.2,0.1-0.5,0.2-0.9,0.3c-0.4,0.1-0.9,0.1-1.3,0.1l0,0c-0.9,0-1.5-0.2-2-0.5S414.5-294,414.5-294.8
								L414.5-294.8z M463.6-306.8L463.6-306.8L463.6-306.8c0,3-0.6,5.6-1.7,7.8c-1.1,2.2-2.7,3.9-4.8,5.1s-4.5,1.8-7.2,1.8l0,0
								c-2.8,0-5.2-0.6-7.3-1.8c-2.1-1.2-3.7-2.9-4.8-5.1s-1.7-4.8-1.7-7.8l0,0c0-3,0.6-5.6,1.7-7.8c1.1-2.2,2.8-3.9,4.8-5.1
								c2.1-1.2,4.5-1.8,7.2-1.8l0,0c2.7,0,5.1,0.6,7.2,1.8c2,1.2,3.6,2.9,4.8,5.1C463.1-312.4,463.6-309.8,463.6-306.8z M450-317.5
								L450-317.5L450-317.5c-2.7,0-4.8,1-6.4,2.9c-1.6,1.9-2.4,4.5-2.4,7.8l0,0c0,3.4,0.8,6,2.3,7.9c1.5,1.9,3.7,2.8,6.5,2.8l0,0
								c2.7,0,4.9-1,6.4-2.9c1.5-1.9,2.3-4.5,2.3-7.8l0,0c0-3.3-0.8-5.9-2.3-7.8C454.8-316.5,452.7-317.5,450-317.5z M471.1-303
								L471.1-303v-5.5h4.8v5.2c0,2.6,0.7,4.4,2,5.5s3.3,1.7,5.7,1.7l0,0c1.6,0,3-0.2,4.1-0.5c1.1-0.3,2-0.7,2.6-1l0,0v-10.9h4.8
								v10.7c0,0.8-0.1,1.5-0.3,2c-0.2,0.5-0.7,1-1.6,1.5l0,0c-0.9,0.5-2.1,1-3.8,1.5c-1.6,0.5-3.6,0.7-5.9,0.7l0,0
								c-2.6,0-4.9-0.4-6.8-1.2c-1.9-0.8-3.3-2-4.2-3.6C471.6-298.5,471.1-300.5,471.1-303z M495.2-318.7v13.4h-4.8v-15.2
								c0.2-0.1,0.5-0.2,0.9-0.3c0.4-0.1,0.9-0.1,1.3-0.1l0,0c0.9,0,1.5,0.2,2,0.5C495-320.1,495.2-319.5,495.2-318.7L495.2-318.7z
								 M475.9-318.7v13.4h-4.8v-15.2c0.2-0.1,0.5-0.2,0.9-0.3c0.4-0.1,0.9-0.1,1.4-0.1l0,0c0.8,0,1.5,0.2,1.9,0.5
								C475.7-320.1,475.9-319.5,475.9-318.7L475.9-318.7z M509-315.5L509-315.5v9.5h-4.8v-9.1c0-0.9,0.2-1.7,0.5-2.2
								c0.3-0.5,0.9-1.1,1.7-1.6l0,0c1-0.7,2.5-1.3,4.3-1.8c1.8-0.5,3.8-0.7,6-0.7l0,0c3.2,0,4.8,0.8,4.8,2.4l0,0
								c0,0.4-0.1,0.8-0.2,1.1c-0.1,0.3-0.3,0.6-0.5,0.9l0,0c-0.4-0.1-0.9-0.2-1.6-0.2s-1.3-0.1-1.9-0.1l0,0c-1.8,0-3.5,0.2-4.9,0.6
								C511.1-316.5,509.9-316,509-315.5z M504.2-294.7v-14l4.8,0.7v15c-0.2,0.1-0.5,0.2-0.9,0.3c-0.4,0.1-0.8,0.1-1.3,0.1l0,0
								c-0.8,0-1.5-0.2-1.9-0.5C504.4-293.4,504.2-294,504.2-294.7L504.2-294.7z M565.7-311.6L565.7-311.6L565.7-311.6
								c0,5-1.2,8.8-3.6,11.4c-2.4,2.6-6,3.9-10.7,3.9l0,0c-1.2,0-2.3,0-3.4-0.1c-1.1-0.1-2.1-0.2-3.1-0.5l0,0v-28.7
								c0.8-0.2,1.7-0.3,2.6-0.4s2.1-0.1,3.3-0.1l0,0c2.7,0,5.2,0.5,7.4,1.5c2.2,1,4,2.5,5.4,4.6C565-317.8,565.7-315,565.7-311.6z
								 M570.7-311.6L570.7-311.6L570.7-311.6c0-4.1-0.8-7.6-2.5-10.3c-1.7-2.7-4-4.8-6.9-6.2c-2.9-1.4-6.4-2.1-10.3-2.1l0,0
								c-1.6,0-3.1,0.1-4.7,0.2c-1.6,0.1-3,0.4-4.2,0.8l0,0c-0.6,0.2-1.1,0.5-1.5,0.8c-0.3,0.3-0.5,0.8-0.5,1.5l0,0v30.9
								c0,1.3,0.8,2.2,2.5,2.8l0,0c1.4,0.4,3,0.7,4.6,0.8c1.6,0.1,3.1,0.1,4.3,0.1l0,0c3.9,0,7.3-0.7,10.1-2.1
								c2.9-1.4,5.1-3.5,6.7-6.4C569.9-303.6,570.7-307.2,570.7-311.6z M578-329.4L578-329.4L578-329.4c0-0.8,0.3-1.6,0.9-2.1
								c0.6-0.6,1.3-0.9,2.2-0.9l0,0c0.9,0,1.7,0.3,2.2,0.9c0.6,0.6,0.8,1.3,0.8,2.1l0,0c0,0.8-0.3,1.6-0.8,2.1
								c-0.6,0.6-1.3,0.9-2.2,0.9l0,0c-0.9,0-1.6-0.3-2.2-0.9C578.3-327.9,578-328.6,578-329.4z M578.8-294.7v-14h4.8v15.8
								c-0.2,0.1-0.5,0.2-0.9,0.3c-0.4,0.1-0.8,0.1-1.3,0.1l0,0c-0.8,0-1.5-0.2-1.9-0.5C579-293.4,578.8-294,578.8-294.7
								L578.8-294.7z M583.6-318.7v12.3h-4.8v-14.1c0.2-0.1,0.5-0.2,0.9-0.3c0.4-0.1,0.9-0.1,1.4-0.1l0,0c0.8,0,1.5,0.2,1.9,0.5
								C583.4-320.1,583.6-319.5,583.6-318.7L583.6-318.7z M604.5-293.7L604.5-293.7L604.5-293.7c-2.3,0-4.5-0.5-6.4-1.4
								c-2-0.9-3.6-2.4-4.8-4.4c-1.2-2-1.8-4.8-1.8-8.1l0,0c0-3,0.6-5.6,1.8-7.6c1.2-2,2.8-3.6,4.9-4.6c2.1-1,4.5-1.6,7.2-1.6l0,0
								c1.8,0,3.5,0.2,5.1,0.7c1.5,0.5,2.8,1,3.9,1.7l0,0c0.6,0.4,1.1,0.9,1.5,1.3c0.4,0.5,0.6,1.1,0.6,1.8l0,0v18.6h-4.8v-18.5
								c-0.7-0.4-1.5-0.8-2.6-1.2c-1-0.3-2.2-0.5-3.6-0.5l0,0c-2.7,0-4.9,0.8-6.5,2.5c-1.6,1.6-2.5,4.1-2.5,7.3l0,0
								c0,3.6,0.8,6.2,2.5,7.7c1.7,1.5,3.7,2.3,6.2,2.3l0,0c1.8,0,3.2-0.3,4.3-0.9c1.1-0.6,1.9-1.3,2.6-2l0,0l0.2,4.3
								c-0.6,0.6-1.6,1.2-2.9,1.8C608-294,606.4-293.7,604.5-293.7z M611.6-292L611.6-292v-6.3h4.8v6.6c0,2.6-0.6,4.8-1.7,6.4
								c-1.1,1.6-2.7,2.8-4.7,3.5c-2,0.7-4.2,1.1-6.7,1.1l0,0c-2,0-3.7-0.2-5.2-0.7s-2.4-0.8-2.9-1.1l0,0c-1.2-0.7-1.8-1.5-1.8-2.6
								l0,0c0-0.6,0.1-1,0.4-1.4c0.3-0.4,0.6-0.7,1-0.9l0,0c0.8,0.6,2,1.2,3.6,1.8c1.5,0.5,3.2,0.8,5,0.8l0,0c2.7,0,4.7-0.6,6.2-1.7
								C610.8-287.6,611.6-289.5,611.6-292z M624.9-329.4L624.9-329.4L624.9-329.4c0-0.8,0.3-1.6,0.9-2.1c0.6-0.6,1.3-0.9,2.2-0.9
								l0,0c0.9,0,1.7,0.3,2.2,0.9c0.6,0.6,0.8,1.3,0.8,2.1l0,0c0,0.8-0.3,1.6-0.8,2.1c-0.6,0.6-1.3,0.9-2.2,0.9l0,0
								c-0.9,0-1.6-0.3-2.2-0.9C625.2-327.9,624.9-328.6,624.9-329.4z M625.6-294.7v-14h4.8v15.8c-0.2,0.1-0.5,0.2-0.9,0.3
								c-0.4,0.1-0.8,0.1-1.3,0.1l0,0c-0.8,0-1.5-0.2-1.9-0.5C625.8-293.4,625.6-294,625.6-294.7L625.6-294.7z M630.4-318.7v12.3
								h-4.8v-14.1c0.2-0.1,0.5-0.2,0.9-0.3c0.4-0.1,0.9-0.1,1.3-0.1l0,0c0.8,0,1.5,0.2,1.9,0.5
								C630.2-320.1,630.4-319.5,630.4-318.7L630.4-318.7z M639.8-300.1v-8.6h4.8v8.3c0,1.6,0.5,2.7,1.4,3.4c0.9,0.7,2.2,1,3.8,1
								l0,0c0.7,0,1.4-0.1,2.3-0.4c0.8-0.2,1.5-0.5,2.1-0.8l0,0c0.2,0.2,0.5,0.5,0.7,0.9c0.2,0.4,0.3,0.8,0.3,1.3l0,0
								c0,0.9-0.5,1.6-1.6,2.2c-1,0.6-2.5,0.8-4.3,0.8l0,0c-2.8,0-5.1-0.6-6.8-1.9C640.7-295.2,639.8-297.2,639.8-300.1L639.8-300.1
								z M653.3-316.1h-11v-4h12.2c0.1,0.2,0.2,0.4,0.4,0.8c0.1,0.4,0.2,0.7,0.2,1.1l0,0c0,0.6-0.2,1.1-0.5,1.5
								C654.3-316.3,653.8-316.1,653.3-316.1L653.3-316.1z M644.7-327v20h-4.8v-21.8c0.2-0.1,0.5-0.2,0.9-0.3
								c0.4-0.1,0.9-0.1,1.4-0.1l0,0c0.8,0,1.5,0.2,1.9,0.5C644.4-328.3,644.7-327.7,644.7-327L644.7-327z M672.1-296L672.1-296
								L672.1-296c1.7,0,3.1-0.2,4.2-0.5c1.1-0.3,1.9-0.7,2.4-1l0,0v-8.7l-7.5,0.8c-2.1,0.2-3.6,0.6-4.6,1.4c-1,0.8-1.5,1.9-1.5,3.3
								l0,0c0,1.5,0.6,2.6,1.8,3.5C668-296.4,669.8-296,672.1-296z M672-321.4L672-321.4L672-321.4c3.5,0,6.3,0.8,8.3,2.3
								c2,1.6,3.1,4,3.1,7.4l0,0v14.3c0,0.9-0.2,1.6-0.5,2c-0.3,0.5-0.8,0.9-1.5,1.3l0,0c-1,0.5-2.2,1-3.9,1.4
								c-1.6,0.4-3.4,0.7-5.4,0.7l0,0c-3.8,0-6.7-0.7-8.8-2.2c-2.1-1.5-3.1-3.6-3.1-6.4l0,0c0-2.6,0.9-4.6,2.6-6
								c1.7-1.4,4.2-2.2,7.3-2.5l0,0l8.5-0.8v-1.7c0-2-0.6-3.5-1.8-4.4c-1.2-0.9-2.8-1.4-4.9-1.4l0,0c-1.6,0-3.2,0.2-4.7,0.7
								c-1.5,0.5-2.8,1-4,1.6l0,0c-0.3-0.3-0.6-0.6-0.9-1c-0.3-0.4-0.4-0.8-0.4-1.2l0,0c0-1,0.6-1.8,1.7-2.4l0,0
								c1.1-0.6,2.3-1,3.8-1.3C668.9-321.3,670.4-321.4,672-321.4z M692.7-294.7v-14l4.8,0.7v15c-0.2,0.1-0.5,0.2-0.9,0.3
								c-0.4,0.1-0.8,0.1-1.3,0.1l0,0c-0.8,0-1.5-0.2-1.9-0.5C692.9-293.4,692.7-294,692.7-294.7L692.7-294.7z M697.5-330.1v24.4
								l-4.8-0.7v-25.5c0.2-0.1,0.5-0.2,0.9-0.3c0.4-0.1,0.8-0.1,1.3-0.1l0,0c0.9,0,1.5,0.2,2,0.5
								C697.3-331.4,697.5-330.9,697.5-330.1L697.5-330.1z M724.8-325.5v15.5h5.8c3.2,0,5.7-0.7,7.5-2c1.8-1.3,2.6-3.4,2.6-6.1l0,0
								c0-2.7-0.9-4.7-2.6-6c-1.7-1.3-4.1-1.9-7.3-1.9l0,0c-1.1,0-2.2,0-3.2,0.1C726.6-325.8,725.6-325.6,724.8-325.5L724.8-325.5z
								 M730.9-305.9L730.9-305.9h-11v-20.9c0-0.6,0.2-1.1,0.5-1.5c0.3-0.3,0.8-0.6,1.5-0.8l0,0c1.2-0.4,2.6-0.6,4.2-0.8
								c1.7-0.2,3.3-0.2,4.9-0.2l0,0c5.1,0,8.8,1.1,11.2,3.2c2.4,2.2,3.5,5.1,3.5,8.7l0,0c0,2.5-0.5,4.7-1.6,6.5
								c-1.1,1.8-2.7,3.3-4.8,4.3C737-306.4,734.3-305.9,730.9-305.9z M719.9-294.8v-13.5h4.9v15.3c-0.2,0.1-0.6,0.2-1,0.3
								c-0.4,0.1-0.8,0.1-1.3,0.1l0,0c-0.9,0-1.5-0.2-2-0.5S719.9-294,719.9-294.8L719.9-294.8z M779-306.8L779-306.8L779-306.8
								c0,3-0.6,5.6-1.7,7.8s-2.7,3.9-4.8,5.1s-4.5,1.8-7.2,1.8l0,0c-2.8,0-5.2-0.6-7.3-1.8c-2.1-1.2-3.7-2.9-4.8-5.1
								c-1.1-2.2-1.7-4.8-1.7-7.8l0,0c0-3,0.6-5.6,1.7-7.8c1.1-2.2,2.8-3.9,4.8-5.1c2.1-1.2,4.5-1.8,7.2-1.8l0,0
								c2.7,0,5.1,0.6,7.2,1.8c2,1.2,3.6,2.9,4.8,5.1C778.4-312.4,779-309.8,779-306.8z M765.3-317.5L765.3-317.5L765.3-317.5
								c-2.7,0-4.8,1-6.4,2.9c-1.6,1.9-2.4,4.5-2.4,7.8l0,0c0,3.4,0.8,6,2.3,7.9c1.5,1.9,3.7,2.8,6.5,2.8l0,0c2.7,0,4.9-1,6.4-2.9
								c1.5-1.9,2.3-4.5,2.3-7.8l0,0c0-3.3-0.8-5.9-2.3-7.8C770.2-316.5,768.1-317.5,765.3-317.5z M786.5-300.1v-8.6h4.8v8.3
								c0,1.6,0.5,2.7,1.4,3.4c0.9,0.7,2.2,1,3.8,1l0,0c0.7,0,1.4-0.1,2.3-0.4s1.5-0.5,2.1-0.8l0,0c0.2,0.2,0.5,0.5,0.7,0.9
								s0.3,0.8,0.3,1.3l0,0c0,0.9-0.5,1.6-1.6,2.2c-1,0.6-2.5,0.8-4.3,0.8l0,0c-2.8,0-5.1-0.6-6.8-1.9
								C787.4-295.2,786.5-297.2,786.5-300.1L786.5-300.1z M799.9-316.1h-11v-4h12.2c0.1,0.2,0.2,0.4,0.4,0.8
								c0.1,0.4,0.2,0.7,0.2,1.1l0,0c0,0.6-0.2,1.1-0.5,1.5S800.5-316.1,799.9-316.1L799.9-316.1z M791.3-327v20h-4.8v-21.8
								c0.2-0.1,0.5-0.2,0.9-0.3c0.4-0.1,0.9-0.1,1.3-0.1l0,0c0.8,0,1.5,0.2,1.9,0.5C791.1-328.3,791.3-327.7,791.3-327L791.3-327z
								 M830.8-306.5l-20.2,2.8l-0.2-3.8l18.2-2.5c-0.2-2.2-0.9-4-2.3-5.5c-1.4-1.4-3.3-2.1-5.7-2.1l0,0c-2.5,0-4.5,0.9-6.2,2.7
								c-1.6,1.8-2.4,4.3-2.4,7.7l0,0v1.3c0.3,3.2,1.3,5.6,3.2,7.3c1.8,1.7,4.3,2.5,7.5,2.5l0,0c1.7,0,3.2-0.3,4.6-0.8
								c1.4-0.6,2.4-1.2,3.3-1.8l0,0c0.4,0.3,0.8,0.6,1.1,1c0.3,0.4,0.4,0.8,0.4,1.3l0,0c0,0.8-0.4,1.5-1.3,2.1
								c-0.9,0.7-2,1.2-3.4,1.6c-1.4,0.4-3,0.6-4.8,0.6l0,0c-3.1,0-5.8-0.6-8-1.7c-2.3-1.1-4-2.8-5.2-5c-1.2-2.2-1.8-4.9-1.8-8.1
								l0,0c0-2.3,0.3-4.3,1-6.1c0.7-1.8,1.6-3.3,2.8-4.5c1.2-1.2,2.6-2.2,4.2-2.9c1.6-0.7,3.4-1,5.4-1l0,0c2.4,0,4.6,0.5,6.5,1.6
								c1.9,1,3.3,2.5,4.4,4.4c1.1,1.9,1.6,4,1.6,6.4l0,0c0,0.9-0.2,1.5-0.6,1.9C832.1-306.8,831.5-306.6,830.8-306.5L830.8-306.5z
								 M864.2-311.2L864.2-311.2v6.1h-4.8v-5.9c0-2.2-0.6-3.9-1.9-4.9c-1.3-1-3-1.6-5.1-1.6l0,0c-1.6,0-3,0.2-4.3,0.6
								s-2.3,0.9-3.2,1.4l0,0v10.4h-4.8v-10.2c0-0.8,0.2-1.5,0.5-2.1c0.3-0.5,0.9-1.1,1.8-1.6l0,0c1-0.6,2.4-1.2,4.2-1.7
								c1.7-0.5,3.7-0.8,5.8-0.8l0,0c3.7,0,6.5,0.8,8.6,2.5C863.1-317.3,864.2-314.7,864.2-311.2z M840.1-294.7v-13.7h4.8v15.4
								c-0.2,0.1-0.5,0.2-0.9,0.3c-0.4,0.1-0.8,0.1-1.3,0.1l0,0c-0.8,0-1.5-0.2-1.9-0.5C840.3-293.4,840.1-294,840.1-294.7
								L840.1-294.7z M859.3-294.7v-13.7h4.8v15.4c-0.2,0.1-0.5,0.2-0.9,0.3c-0.4,0.1-0.8,0.1-1.3,0.1l0,0c-0.9,0-1.5-0.2-2-0.5
								C859.5-293.4,859.3-294,859.3-294.7L859.3-294.7z M873.2-300.1v-8.6h4.8v8.3c0,1.6,0.5,2.7,1.4,3.4c0.9,0.7,2.2,1,3.8,1l0,0
								c0.7,0,1.4-0.1,2.3-0.4c0.8-0.2,1.5-0.5,2.1-0.8l0,0c0.2,0.2,0.5,0.5,0.7,0.9c0.2,0.4,0.3,0.8,0.3,1.3l0,0
								c0,0.9-0.5,1.6-1.6,2.2c-1,0.6-2.5,0.8-4.3,0.8l0,0c-2.8,0-5.1-0.6-6.8-1.9C874.1-295.2,873.2-297.2,873.2-300.1L873.2-300.1
								z M886.7-316.1h-11v-4h12.2c0.1,0.2,0.2,0.4,0.4,0.8c0.1,0.4,0.2,0.7,0.2,1.1l0,0c0,0.6-0.2,1.1-0.5,1.5
								C887.7-316.3,887.2-316.1,886.7-316.1L886.7-316.1z M878.1-327v20h-4.8v-21.8c0.2-0.1,0.5-0.2,0.9-0.3
								c0.4-0.1,0.9-0.1,1.4-0.1l0,0c0.8,0,1.5,0.2,1.9,0.5C877.8-328.3,878.1-327.7,878.1-327L878.1-327z M895.1-329.4L895.1-329.4
								L895.1-329.4c0-0.8,0.3-1.6,0.9-2.1c0.6-0.6,1.3-0.9,2.2-0.9l0,0c0.9,0,1.7,0.3,2.2,0.9c0.6,0.6,0.8,1.3,0.8,2.1l0,0
								c0,0.8-0.3,1.6-0.8,2.1c-0.6,0.6-1.3,0.9-2.2,0.9l0,0c-0.9,0-1.6-0.3-2.2-0.9C895.4-327.9,895.1-328.6,895.1-329.4z
								 M895.9-294.7v-14h4.8v15.8c-0.2,0.1-0.5,0.2-0.9,0.3c-0.4,0.1-0.8,0.1-1.3,0.1l0,0c-0.8,0-1.5-0.2-1.9-0.5
								C896.1-293.4,895.9-294,895.9-294.7L895.9-294.7z M900.7-318.7v12.3h-4.8v-14.1c0.2-0.1,0.5-0.2,0.9-0.3
								c0.4-0.1,0.9-0.1,1.3-0.1l0,0c0.8,0,1.5,0.2,1.9,0.5C900.5-320.1,900.7-319.5,900.7-318.7L900.7-318.7z M920-296L920-296
								L920-296c1.7,0,3.1-0.2,4.2-0.5c1.1-0.3,1.9-0.7,2.4-1l0,0v-8.7l-7.5,0.8c-2.1,0.2-3.6,0.6-4.6,1.4c-1,0.8-1.5,1.9-1.5,3.3
								l0,0c0,1.5,0.6,2.6,1.8,3.5C915.9-296.4,917.7-296,920-296z M919.9-321.4L919.9-321.4L919.9-321.4c3.5,0,6.3,0.8,8.3,2.3
								c2,1.6,3.1,4,3.1,7.4l0,0v14.3c0,0.9-0.2,1.6-0.5,2c-0.3,0.5-0.8,0.9-1.5,1.3l0,0c-1,0.5-2.2,1-3.9,1.4S922-292,920-292l0,0
								c-3.8,0-6.7-0.7-8.8-2.2c-2.1-1.5-3.1-3.6-3.1-6.4l0,0c0-2.6,0.9-4.6,2.6-6c1.7-1.4,4.2-2.2,7.3-2.5l0,0l8.5-0.8v-1.7
								c0-2-0.6-3.5-1.8-4.4c-1.2-0.9-2.8-1.4-4.9-1.4l0,0c-1.6,0-3.2,0.2-4.7,0.7c-1.5,0.5-2.8,1-4,1.6l0,0c-0.3-0.3-0.6-0.6-0.9-1
								c-0.3-0.4-0.4-0.8-0.4-1.2l0,0c0-1,0.6-1.8,1.7-2.4l0,0c1.1-0.6,2.3-1,3.8-1.3C916.8-321.3,918.3-321.4,919.9-321.4z
								 M940.6-294.7v-14l4.8,0.7v15c-0.2,0.1-0.5,0.2-0.9,0.3c-0.4,0.1-0.8,0.1-1.3,0.1l0,0c-0.8,0-1.5-0.2-1.9-0.5
								C940.8-293.4,940.6-294,940.6-294.7L940.6-294.7z M945.4-330.1v24.4l-4.8-0.7v-25.5c0.2-0.1,0.5-0.2,0.9-0.3
								c0.4-0.1,0.9-0.1,1.3-0.1l0,0c0.9,0,1.5,0.2,2,0.5C945.2-331.4,945.4-330.9,945.4-330.1L945.4-330.1z"/>
						</g>
					</g>
				</g>
			</g>
			<g>
				<g>
					<path class="st1" d="M110.1-225.7v22.7h34.3c3.4,0,5.9,2.8,5.9,5.9s-2.8,5.9-5.9,5.9H64.1c-3.4,0-5.9-2.8-5.9-5.9
						s2.8-5.9,5.9-5.9h34.3v-22.7h-82c-6.5,0-11.8-5.3-11.8-11.8v-113.2c0-6.5,5.3-11.8,11.8-11.8h40.2c3.4,0,5.9,2.8,5.9,5.9
						c0,3.1-2.8,5.9-5.9,5.9H16.3v113.2h175.8v-113.2h-39.9c-3.4,0-5.9-2.8-5.9-5.9s2.8-5.9,5.9-5.9h40.2c6.5,0,11.8,5.3,11.8,11.8
						v113.2c0,6.5-5.3,11.8-11.8,11.8H110.1z M104.8-453.4c9.8,0.3,17.7,8.4,17.4,18.3c-0.3,7.6-5.1,14-11.8,16.3v148.5
						c0,3.4-2.8,5.9-5.9,5.9c-3.4,0-5.9-2.8-5.9-5.9v-148.5c-2.5-0.8-5.1-2.5-7-4.5c-3.4-3.4-5.1-7.9-5.1-12.6
						c0.3-9.5,8.1-17.4,18-17.4H104.8z M104.5-441.6c-3.4,0-5.9,2.5-6.2,5.9c0,1.7,0.6,3.1,1.7,4.2c1.1,1.1,2.5,1.7,4.2,2h0.3
						c3.1,0,5.9-2.5,5.9-5.9C110.1-438.8,107.6-441.3,104.5-441.6 M124.4-298.1V-390c0-10.7,8.7-19.4,19.4-19.4h13.5
						c2.5-7,9-11.8,16.8-11.8c9.8,0,18,8.1,18,18s-8.1,18-18,18c-7.9,0-14.3-5.1-16.8-11.8h-13.5c-4.2,0-7.3,3.4-7.3,7.3v91.8
						c0,3.4-2.8,5.9-5.9,5.9C127.2-292,124.4-294.8,124.4-298.1 M168.2-403.2c0,3.4,2.5,5.9,5.9,5.9c3.4,0,5.9-2.5,5.9-5.9
						s-2.5-6.2-5.9-6.2C170.8-409.3,168.2-406.5,168.2-403.2 M71.9-298.1V-390c0-4.2-3.4-7.3-7.3-7.3H51.2c-2.5,7-9,11.8-16.8,11.8
						c-9.8,0-18-8.1-18-18c0-9.8,8.1-18,18-18c7.9,0,14.3,5.1,16.8,11.8h13.5c10.7,0,19.4,8.7,19.4,19.4v91.8c0,3.4-2.8,5.9-5.9,5.9
						C75-292.5,71.9-294.8,71.9-298.1 M40.2-403.2c0-3.4-2.5-5.9-5.9-5.9s-5.9,2.5-5.9,5.9c0,3.4,2.5,5.9,5.9,5.9
						S40.2-400.1,40.2-403.2"/>
				</g>
			</g>
		</g>
		<rect x="4.5" y="-453.4" class="st3" width="1497.3" height="262.3"/>
	</g>
</g>
<g>
	<text transform="matrix(1 0 0 1 340.3812 821.2771)"><tspan x="0" y="0" class="st4 st5 st6">Dezario</tspan><tspan x="407.8" y="0" class="st4 st7 st6">Infotech</tspan></text>
	<g>
		<text transform="matrix(1 0 0 1 340.3812 878.3826)" class="st4 st5 st8">Unleash Your Digital Potential</text>
	</g>
</g>
</svg>
